<svg xmlns="http://www.w3.org/2000/svg" viewBox="0 0 1485.31 1353"><title>Mask tecno 2</title><g id="Capa_2" data-name="Capa 2"><g id="Capa_1-2" data-name="Capa 1"><path d="M742.47,1351.36c-204.32,0-409.72,0-614.25,0C-50,1370.49,13.4,1218.29,2.14,1112.16,4.85-29-9.28,66.4,24.2,23.65,46.86-.74,80.25.29,112.15,1.11H282.74c232.54,0,464.46,0,697,.11C1131-7,1105.57,25.65,1167.7,134.29c81,153.52,91.6,192.46,124,203.89,38.49,12.45,79.77,2.67,119.51,6.13,93.67,10.05,69.12,104,72.35,150.13V761.63c-8,598.74,48.55,591.65-148.09,589.75Z"/></g></g></svg>