<svg xmlns="http://www.w3.org/2000/svg" viewBox="0 0 1226.74 1274.4"><title>Mask tecno 1</title><g id="Capa_2" data-name="Capa 2"><g id="Capa_1-2" data-name="Capa 1"><path d="M1226.26,637.27c-.06,198,.09,395.71,0,594.38-2.5,39.46-31.31,43.67-64.21,42H1007.44c-873.39-2.53-835.71,9.5-857.73-15.83-16.07-22.95-6.4-55.91-8.91-82.7C135.45,836,177.59,952.94,13.48,805.12,6.63,798.21,3.14,791,1.32,781.3c-.37-825-8-748.92,18-773.82C40.12-5,66.9,2.35,90.64.48c313.8-.09,624.08-.25,937.29.3,224.74,3.08,197-28.22,198.34,150.15C1226.26,313.35,1226.26,475,1226.26,637.27Z"/></g></g></svg>