<svg xmlns="http://www.w3.org/2000/svg" viewBox="0 0 641.78 652.05"><title>forma dividida</title><g id="Capa_2" data-name="Capa 2"><g id="Capa_1-2" data-name="Capa 1"><path d="M204.11,0h77.4a24,24,0,0,1,24,24V289.73a24,24,0,0,1-24,24H24a24,24,0,0,1-24-24V204.11A204.11,204.11,0,0,1,204.11,0Z"/><path d="M540.41,338.36h77.4a24,24,0,0,1,24,24V628.08a24,24,0,0,1-24,24H360.27a24,24,0,0,1-24-24V542.47A204.11,204.11,0,0,1,540.41,338.36Z" transform="translate(978.08 990.41) rotate(180)"/><path d="M508.17,54.09h64.9a20.1,20.1,0,0,1,20.1,20.1V297a20.1,20.1,0,0,1-20.1,20.1h-216A20.1,20.1,0,0,1,337,297V225.25A171.16,171.16,0,0,1,508.17,54.09Z" transform="translate(650.71 -279.47) rotate(90)"/><path d="M218.42,339h64.9a20.1,20.1,0,0,1,20.1,20.1V582a20.1,20.1,0,0,1-20.1,20.1h-216A20.1,20.1,0,0,1,47.26,582V510.18A171.16,171.16,0,0,1,218.42,339Z" transform="translate(-295.21 645.89) rotate(-90)"/></g></g></svg>