<svg xmlns="http://www.w3.org/2000/svg" viewBox="0 0 959.32 171.88"><defs><style>.cls-1{fill:#010101;}.cls-2{fill:#080808;}</style></defs><title>Skyline Miame divisor</title><g id="Capa_2" data-name="Capa 2"><g id="Capa_1-2" data-name="Capa 1"><path class="cls-1" d="M438.22,42.69c-8.73,0-17.45,0-26.17,0-.65,0-1.6.45-1.81-.72s.25-1.57,1.46-1.54c2.93.08,5.87-.09,8.79.06,2.69.13,1.43-1.78,1.68-2.9.32-1.41-.29-1.72-1.69-1.64-1.09.07-3,.85-2.83-1.6.05-.76.19-1,1-.89,1.74.32,3.44-.57,5.08-.52,5.41.17,10.81,0,16.21,0,2.49,0,4.95.74,7.48-.11a8,8,0,0,1,4.9.08,10.5,10.5,0,0,0,4.87.46c.55-.08,1.29-.4,1.29.63,0,.72.24,1.6-.84,1.8-.58.11-1.2.08-1.79.18-.78.14-2-.55-2.28.24a9.28,9.28,0,0,0-.15,3.54c.06.9.88.63,1.42.63,3.16,0,6.32,0,9.48,0,.75,0,1.66-.33,1.65,1.09s-.81,1.16-1.63,1.16Z"/><path d="M438.22,45c-8.72,0-17.45,0-26.17,0-.66,0-1.83.59-1.81-.89s1.18-.86,1.83-.86q26.06,0,52.12,0c.64,0,1.8-.62,1.78.89s-1.18.85-1.81.86C455.51,45,446.87,45,438.22,45Z"/><path class="cls-2" d="M410.4,47.34c-.85-1.23-.62-1.82,1-1.82q26.56,0,53.13,0c1.42,0,1.69.52,1.41,1.71-.77.81-1.78.69-2.74.69H413A3.5,3.5,0,0,1,410.4,47.34Z"/><path d="M438.44,50.43c8.57,0,17.14,0,25.71,0,.64,0,1.8-.66,1.82.85s-1.14.89-1.78.89q-26.06.06-52.11,0c-.65,0-1.82.62-1.84-.85s1.14-.9,1.8-.9C420.84,50.41,429.64,50.43,438.44,50.43Z"/><path class="cls-2" d="M410.4,54.55c-.85-1.23-.62-1.82,1-1.82q26.56,0,53.13,0c1.42,0,1.69.53,1.41,1.71-.77.81-1.78.69-2.74.69q-25.1,0-50.2,0A3.5,3.5,0,0,1,410.4,54.55Z"/><path class="cls-2" d="M465.93,68.85l-52.83.05c-.89,0-1.79.06-2.69.09-.87-1.22-.68-1.83.95-1.83q26.56,0,53.14,0C465.94,67.13,466.17,67.69,465.93,68.85Z"/><path class="cls-2" d="M410.41,64.76c6.29,0,12.59.09,18.88.1q18.31,0,36.64,0c.24,1.16,0,1.71-1.43,1.71q-26.56-.08-53.14,0C409.73,66.6,409.54,66,410.41,64.76Z"/><path class="cls-2" d="M465.93,61.64l-52.83,0c-.89,0-1.79.06-2.69.09-.87-1.22-.68-1.83.95-1.83q26.56,0,53.14,0C465.94,59.92,466.17,60.47,465.93,61.64Z"/><path class="cls-2" d="M438.22,57.63c8.64,0,17.27,0,25.91,0,.63,0,1.8-.64,1.83.81s-1.15.88-1.82.88q-26,0-52,0c-.7,0-1.86.51-1.87-.88s1.2-.82,1.85-.82C420.8,57.62,429.51,57.63,438.22,57.63Z"/><path d="M465.93,56.69l-40.37.09q-6.88,0-13.76,0c-.54,0-1.35.25-1.35-.71s.81-.71,1.35-.71l54.13.08Z"/><path d="M465.94,63.91c-5.48,0-11,.1-16.44.11q-18.27,0-36.53,0h-1.81c-.55,0-.8-.29-.75-.85s.35-.6.75-.62.61,0,.91,0h53.21a5,5,0,0,1,.66.1Z"/><path d="M465.93,49.48l-40.37.09c-4.59,0-9.18,0-13.76,0-.54,0-1.35.26-1.35-.7s.81-.71,1.35-.71l54.13.08Z"/><path d="M465.94,71.12c-5.48,0-11,.1-16.44.11q-18.27,0-36.53,0l-1.81,0c-.55,0-.8-.29-.75-.85s.35-.6.75-.62.61,0,.91,0h53.21a5,5,0,0,1,.66.1Z"/><path d="M30,89.14l-.05-.21A1.6,1.6,0,0,0,30,89.14Z"/><path d="M949.74,162.6q-11.38-.07-22.79,0c-1.23,0-1.88-.11-1.88-1.65,0-13.9,0-27.79,0-41.69,0-.48-.23-1.34.39-1.34,1.12,0,.8-.43.49-1-1.43-2.56-.27-5.19-.71-7.9,1.16.29.59,2.24,1.44,1.34,1.33-1.43,1,.34,1.45.49.16,0,.11.58.29.79s.16.7.61.66c1-1.68.37-3.35,0-5.36a3.79,3.79,0,0,0,2.09,1.13c0-1.26-.91-2-1.4-3,.55-.18,1.19.28,1.61-.3-.62-1.06-1.85-1.32-2.76-2.21h4.69a5.82,5.82,0,0,0-3.63-1.74c-.28,0-1.25.23-.73-.48.89-1.19-.27-.89-.51-.75-2.23,1.29-3-.35-3.79-1.83a.94.94,0,0,0-1-.55c-.41,1.28,1.2,2.06.92,3.3-3.82-1.84-4.92-1.91-7.37-.3l3.46.9c-1.84,1.7-4,3-5.07,5.46,1.1.34,1.58-.67,2.39-.71.58,0,1-1.27,1.64-.46.54.65-.43.95-.69,1.41-1,1.8-1.86,3.6-.88,5.7a6.5,6.5,0,0,0-5.52,2.16c.87.34,1.91-.47,2.83.45-2.38.57-.37,2.71-1.44,3.8,0,0,.22.28.25.26,1.77-.89,1.13.69,1,1.09-.49,1.08-1.26.27-1.83,0q-4.15-2-8.27-4.06c-2.68-1.36-5.88-2.16-6.53-5.8a.87.87,0,0,0-.31-.19c-.11-.58-.08-1.14.46-1.44,1.33-.76.5-.81-.15-1.09-.48-.2,0-1-.91-1.13.75,1.32-1.38,1.66-1,1.78,1.23.44,1.13,1.2,1,2l0,0c-1,3.9-4.57,4.8-7.58,6.33-2.34,1.18-4.72,2.3-7.06,3.48-.92.47-2.73.53-1.21,2.36.42.51-.2,1-.6,1.28s-.93.85-.63,1.3c1.67,2.58-.69,2.92-2.05,3.75s-3,1.09-3.92,2.51.19,2.85-.64,4.3,1.16,3.83-1.16,5.17a2,2,0,0,0,.41.71c.7.54.53,1.3.62,2,.53,4.19,0,8.39-.05,12.58,0,1.54.22,3.38-.95,5.38a10.11,10.11,0,0,1-.28-1.34q-.91-17.74-1.82-35.5-1.89-37.42-3.75-74.84c0-.76,0-1.5-.83-1.92q-4.62-2.35-9.2-4.73c-.57-.29-.9-.59-1.19.45s-2.87,1.11-3.08.06c-.26-1.34-.78-.71-1.31-.44-2.74,1.4-5.43,2.88-8.2,4.21A2.59,2.59,0,0,0,841.26,50c-.31,7.64-.74,15.28-1.13,22.92q-1.57,30.9-3.17,61.8c-.33,6.47-.68,12.94-1,19.46-.94-.31-.76-1-.72-1.55.25-3-.06-6,.06-8.94.08-1.69-.19-3.35-.06-5a51.5,51.5,0,0,0,0-6.69,61.72,61.72,0,0,1,0-6.38,52.92,52.92,0,0,0,.08-5.62c-.18-3.73-.06-7.45-.06-11.16,0-3.33,0-6.68.13-10,.12-4.11-.05-8.25,0-12.38a32.47,32.47,0,0,0,0-5,42.48,42.48,0,0,1-.1-6.76c.09-3.41.08-6.84.07-10.23,0-3.62-.09-7.28-.07-10.9,0-3.39,0-6.8.13-10.21.22-4.46-.48-9-.65-13.44,0-1.26-.47-1.49-1.59-1.46-2.25.08-4.51.05-6.77,0-.93,0-1.45.11-1.65,1.24-.26,1.5-.82,3-2.69,3.25-1,.14-1.89-.6-3-.63-4.12-.09-8.17.76-12.29.67-2.14,0-4.29-.55-6.6,1-1.36.88-1.56,1.39-1.58,2.57-.43,35.37.85,70.75-.63,106.12-.18,4.34,1.06,8.66.62,13,0,.52.38,1.3-.45,1.52s-1.34-1-2.24-1.08a1.16,1.16,0,0,1,.65-1.52c.85-.35.8-1,.21-1-1.58-.09-.94-1-.74-1.71.14-.45,2.42-.26.32-1.38-.82-.43-.9-1.24.1-1.75s1.33-.72-.05-1.24c-.95-.35-.78-1.19,0-1.83s.72-.61.06-1.08c-.84-.59-.94-1.25,0-1.76s1.4-.72,0-1.28c-1-.43-.86-1.23,0-1.73,1.12-.65,1.32-.88-.14-1.36-.8-.27-.75-1.21.15-1.66.59-.29,1.22-.62.3-1.12-2.33-1.25,0-1.59.36-2.38s-2.88-1.2-.44-2.58c.75-.43.73-.72,0-1-1.33-.51-1.14-1.14-.21-1.76s1.36-.78,0-1.34c-1-.4-.91-1.26,0-1.73,1.24-.66,1.3-.82-.13-1.31-.78-.26-.7-1.17.18-1.67s1.25-.79-.15-1.22c-.73-.23-.83-1.24.17-1.78s1.31-.77-.09-1.27c-.9-.33-.8-1.14.1-1.75s.79-.72,0-1c-.63-.22-.71-.71-.55-1,.56-1,1.64-1.88,0-2.87a.74.74,0,0,1,.26-1c1.56-.57,1.48-.58,0-1.46-1.2-.72.61-1.43.93-2.17.23-.57-2.22-1-.92-2.24.74-.73,2.35-.54,0-1.54-1.39-.6.76-1.38,1-2.16s-2.44-1.07-.91-2.23c1.33-1,1.29-1.11-.17-1.53-.16-.05-.3-1.1-.13-1.21,1-.68,2.23-1.19.06-2-.23-.08-.38-1.13.58-1.54s.87-.83.19-1c-1.42-.27-1.1-1.24-.57-1.69.69-.59,2-.61.15-1.48-.72-.34-.93-1.28.2-1.74.14,0,.32,0,.41-.15.34-.37.48-.93-.14-1-.88,0-1-.46-.93-1.14,0-.84,1.06-.52,1.24-1.12.34-1.16-.91-.37-1.1-.86s-.37-1.15.18-1.61c.16-.13.47-.07.63-.21.44-.38.72-.76-.12-1.08-1.37-.53-1.15-1.2-.06-1.83.91-.52.86-.9-.18-1a.65.65,0,0,1-.56-1c.55-1,1.63-1.84,0-2.88-.25-.16-.08-.92.68-1.07s1.06-.84.14-1.08c-1.38-.37-1.07-1.31-.45-1.68,1.1-.66,1.71-.79,0-1.44-.58-.22-.93-1.33.38-1.75.56-.19,1.05-.71,0-1.14-1.36-.59-1.14-1.23,0-1.82.39-.2.59-.43.51-.86-.11-.59-.57-.29-.88-.31q-.9,0-1.8,0c-1.8.09-3.29.27-3.16-2.53.06-1.27-1.08-2.69-.56-4.26.15-.47-.37-.55-.74-.57a13.18,13.18,0,0,1-10.32-5.53,13.07,13.07,0,0,1-9.85,5.52c-.49.05-1.2-.11-1.08.71.21,1.53-.65,3-.67,4.24,0,2.5-1.15,2.62-3,2.42a8.34,8.34,0,0,0-1.58,0c-.41,0-1-.3-1.18.28s.18.72.64.94c.87.42,1,1.33.15,1.64-1.2.44-1.27.79-.21,1.3s.92,1.39.29,1.69c-.91.44-1.44.55-.33,1.32.06,0,.17,0,.22.06,1.51,1.36-.48,1.4-.73,2.09-.35.93,2.19,1,1,2.49-.11.13-.42.09-.64.14-.53.13-.57.6-.25.8.94.61,2,1.15.52,2.2-1.94,1.39,1.76,1.11.64,2.27-.18.17-.21.52-.53.6-1.33.35-1,.74-.08,1.27s1,1.42,0,1.76c-1.28.46-.84.68-.12,1.21,1.45,1.08.37,1.27-.46,2.06s2.2.94,1,2.44a1.17,1.17,0,0,1-.59.24c-1.12.31-.61,1-.11,1.18a1,1,0,0,1,.79,1.33c-.19.89-1,.48-1.5.58a11.11,11.11,0,0,1-2.24.14c-9.17,0-18.35.08-27.53,0-2,0-2.43.54-2.43,2.48Q730,126.73,730,160c0,.67,0,1.35-.05,2s-.57.57-1,.59-.63-.29-.64-.7c0-.6,0-1.2,0-1.8V76.25c0-2.7-1.28-4-4-4-3.54,0-7.07-.06-10.61,0-1.23,0-1.71-.25-1.65-1.58.1-2.47,0-5,0-7.43,0-1.79.58-4.19-.34-5.2-1.08-1.2-3.54-.42-5.39-.35-5.43.2-10.29,1.87-14.12,6a4.86,4.86,0,0,0-1.39,3.62q.07,28.62,0,57.24v2.54a3.61,3.61,0,0,1-2.23-1.64c-.1,3.2.21,6.12-.74,9-.36,1-.6,1.61-1.89,1.6-5.55-.09-11.1-.11-16.65,0-1.71,0-1.92-.61-1.91-2.08,0-9.46,0-18.93,0-28.39,0-8.51-.14-17,.43-25.52.05-.78.38-1.84-.49-2.28-1.33-.68-1.54-2-2.12-3.27-.24,1,.08,2.17-1.34,2.59a8.44,8.44,0,0,1,.4-4c.36-.92,2.09-2.56-.5-3.3-.45-.12-.29-.78-.24-1.22.18-1.6-.39-3-.94-5-.3,1.29-.56,2.12-.67,3-.07.59-.08,1-.85,1-.47,0-.76-.11-.93-.7-.7-2.51-1.09-5.33-.17-7.5,1.27-3-.93-4.94-.67-7.46-.78.15-.21,1-1.13.85,1.29-4.17-3-6.64-3-10.56a13.22,13.22,0,0,1-2.74,6.6c-.12.15,0,.44-.07.67-.19,1.18-.66,1.1-1.1,2.54-.55,1.77-1.5,3.62-1.13,5.55a20.3,20.3,0,0,1,.15,9.14c-.12.46-.09.85-.73.87s-.89-.25-1-.88c-.16-.85,0-1.84-.91-2.68-.23,1.86-1,3.4-.62,5.09,0,.24-.08.75-.22.78-2.54.63-1,2.22-.6,3.22a6.39,6.39,0,0,1,.24,4c-1.15-.46-.85-1.61-1.42-2.24-.2.6-.21,1.41-.6,1.67-2.38,1.6-1.61,4-1.88,6.22-.2,1.65.53,3.07.53,4.64q0,23.44,0,46.88c0,1.56-.53,1.93-1.93,1.79-4.59-.46-9.2.28-13.79-.27-1.23-.15-2.61.49-3.76.17-1.6-.44-.52-2.43-1.42-3.43-.83-.27-.84.57-1.23.9-.55,1.92-.9,3.79.66,5.49.25.27.21.86.21,1.3q0,9.47,0,18.93c0,.47.28,1.18-.42,1.32a2.91,2.91,0,0,1-2-.11c-.66-.45-.29-1.39-.29-2.12q0-61.29,0-122.6c0-6.83-.05-13.67,0-20.5,0-1.51-.41-1.93-1.88-1.87-2.78.11-5.57,0-8.35,0-.62,0-1.57.24-1.5-.81.1-1.46-.8-1.28-1.71-1.29-4.16-.07-4.16-.08-4.39-4.28,0-.24-.12-.27-.26.14a11.38,11.38,0,0,0,0,2c.29,1.84-.52,2.25-2.23,2.17-2.93-.13-5.87-.05-8.8,0-.55,0-1.57-.25-1.54.46.1,2.26-1.46,1.58-2.58,1.61a47.56,47.56,0,0,1-6.54,0c-2.43-.28-2.76.7-2.75,2.85q.09,65.36.09,130.72c0,1.83-.4,2.38-2.31,2.38s-2.3-.64-2.29-2.43c.08-13.15-.36-26.31.18-39.43.37-8.93-1-17.06-6.15-24.42a4.92,4.92,0,0,1-.87-3c0-7.57-1.28-14.88-4.71-21.72-.1-.2-.15-.43-.23-.63-1.81-4.65-3.62-9.3-5.56-14.3-2.46,6.36-4.7,12.31-7.08,18.21-1.64,4-3.11,8.09-3,12.55,0,1.79-.3,3.59-.3,5.38,0,2.3-1.24,4-2.58,5.76V83c0-14.2,0-28.4,0-42.59,0-1.7-.44-2.13-2.12-2.11-7.07.1-14.15.14-21.21,0-2.07,0-2.41.58-2.41,2.48.06,28.55,0,57.1.08,85.64,0,1.58-.21,2.29-2,2.13-3.2-.29-6.3-1.45-9.58-1-1.1.16-.82-.82-.84-1.42q-.1-5-.18-10c-.15-10.14-.06-20.28-.05-30.42,0-.94.35-2,.05-2.79-1.37-3.67-.06-7.45-.58-11.16-.16-1.16-.05-1.92-1.36-2.18a2.08,2.08,0,0,1-1.8-2.76c.44-2.38-.66-4-2.32-5.65-3.28-3.35-6.17-7.07-9.3-10.73-2.95,4-6.54,7.52-9.82,11.32-1.16,1.34-2,2.52-1.65,4.42.17,1,.74,2.55-1,3s-2.35,1.24-2.24,3.37c.23,4.3-.42,8.63-.45,13-.09,13.47.06,27-.28,40.42,0,1.45-.5,1.67-1.81,1.72-3.6.12-7.13-.56-10.73-.54-14,.11-28,0-42,0a3.93,3.93,0,0,1-2.74-.59h3q22.8,0,45.59,0c1.2,0,2.33.08,1.91-1.69H415.7c.7-1.33,1.72-.81,2.47-.81q22.66-.06,45.32,0c.82,0,1.64-.08,2.47-.13v-1.3c-2.85,0-5.71-.13-8.56-.13q-19.61,0-39.23,0c-.76,0-1.58.18-2.25-.83h50c.42-1.76-.7-1.69-1.9-1.69q-22.86,0-45.73,0c-.79,0-1.64.28-2.42-.29.78-.56,1.63-.28,2.42-.28q22.88,0,45.73,0c1.2,0,2.32.07,1.9-1.69H415.7c.7-1.33,1.72-.81,2.47-.82q22.66,0,45.32,0c.82,0,1.64-.09,2.47-.13v-1.3c-2.86,0-5.71-.13-8.56-.13-13.3,0-26.6,0-39.91,0-.75,0-1.64.36-2.63-.83h51.08c.42-1.76-.71-1.68-1.91-1.68q-24.25,0-48.51,0c-.78,0-1.66.34-2.64-.5H464.8c.59,0,1.18.11,1.2-.85s-.4-1-1.1-1c-.45,0-.9,0-1.35,0q-25.4,0-50.77,0c-.75,0-1.59.34-2.31-.35.8-.56,1.65-.29,2.44-.29q25.5,0,51,0c1,0,2.45.4,2-1.55-1.28-.05-2.55-.13-3.82-.13l-49.33,0a4.41,4.41,0,0,1-2.28-.22l0-.62h55.38c.42-1.76-.7-1.68-1.91-1.68q-25.61,0-51.21,0a3.21,3.21,0,0,1-2.49-.51H463a4.65,4.65,0,0,0,1.12,0c.66-.17,1.78.63,1.86-.83s-1.08-.8-1.74-.94a5.31,5.31,0,0,0-1.13,0q-25.16,0-50.31,0a3,3,0,0,1-2.67-.65h54c1.05,0,2.25.22,1.83-1.52l-53-.07a4.42,4.42,0,0,1-2.47-.24c0-.24,0-.47,0-.71h55.47c.42-1.76-.7-1.68-1.9-1.68q-25.6,0-51.19,0a4.39,4.39,0,0,1-2.77-.52h53.53c.6,0,1.2,0,1.8,0s.58-.37.56-.78.12-.95-.56-1-1.2,0-1.8,0H412.87a4.69,4.69,0,0,1-2.84-.51h3q25.49,0,51,0c1.2,0,2.32.07,1.9-1.69q-26.52,0-53-.06a4.52,4.52,0,0,1-2.47-.25c0-.23,0-.47,0-.7h55.47c.42-1.76-.7-1.69-1.9-1.68H412.85a4.39,4.39,0,0,1-2.77-.52h53.53c.6,0,1.2,0,1.8,0s.58-.37.56-.77.12-1-.56-1-1.2,0-1.8,0H412.87a4.63,4.63,0,0,1-2.84-.52h3q25.49,0,51,0c1.2,0,2.32.07,1.9-1.69L413,86.49h-2.64c.68-1.29,1.7-.76,2.45-.77q25.33,0,50.68,0c.82,0,1.64-.09,2.47-.13.4-2-1-1.55-2-1.55q-25.61,0-51.2,0c-.72,0-1.54.26-2.29-.38a4.65,4.65,0,0,1,2.54-.27h41.27c3.46,0,6.92,0,10.38,0,1,0,1.63-.23,1.33-1.35-.23-.86-1-.45-1.52-.45-3.79,0-7.58,0-11.37,0A69.43,69.43,0,0,1,464.48,81c1.41,0,1.7-.51,1.43-1.7H453l0-.66c4.3-.63,8.68,0,13-.35.22-1.1-.07-1.6-1.36-1.57-3.37.09-6.75,0-10.12,0-.46,0-1.15.38-1.46-.65h1.81c3.37,0,6.74,0,10.11,0,.73,0,1.1-.14,1.07-1s-.38-.86-1-.84-1.05,0-1.57,0H453.08a68.16,68.16,0,0,1,11.41-.49c1.42,0,1.68-.53,1.43-1.71l-52.83,0c-.89,0-1.79-.06-2.68-.1-.88,1.25-.62,1.84,1,1.82,3.85,0,7.69,0,12.06,0a3.64,3.64,0,0,1-2.5.51c-3,0-6,0-9,0-.61,0-1.63-.51-1.68.8-.06,1.49,1.08.93,1.76,1,1.95.06,3.91,0,5.87,0h5.63a2.94,2.94,0,0,1-2.44.66c-3.16,0-6.32,0-9.48,0-.71,0-1.4,0-1.34,1,0,.89.69.82,1.3.83h11.84a3.27,3.27,0,0,1-2.45.57c-3.16,0-6.32,0-9.48,0-.59,0-1.24-.1-1.22.85s.48,1,1.17,1,1.2,0,1.81,0h9.71a41.35,41.35,0,0,1-8.3.52c-2.57,0-5.46.74-6.75-2.62a1,1,0,0,0-.5-.45c-1.51-.74-1.69-2-1.68-3.53.07-8.79-.1-17.59.1-26.37a12.69,12.69,0,0,0-4-9.65,49.42,49.42,0,0,0-11.72-8.3,1.77,1.77,0,0,0-2.37.26c-2.43,2.13-4.91,4.21-7.47,6.18a3.35,3.35,0,0,0-1.42,3c.07,6.68,0,13.37,0,20,0,.58.26,1.56-.26,1.66a9.92,9.92,0,0,1-3.8,0c-.91-.19-.49-1.32-.4-2,.24-1.85-.53-2.28-2.24-2.17-2.4.14-4.82,0-7.22.06-1.38.06-1.92-.22-1.91-1.79.06-10.29,0-20.58-.05-30.87,0-.76.39-1.67-.6-2.32-.66.69-.42,1.55-.43,2.32-.06,10.22-.16,20.43-.1,30.64,0,1.79-.56,2.09-2.15,2-3.08-.12-6.17,0-9.26,0-.8,0-1.37,0-1.47,1.11-.27,3.1-.34,3.1-3.51,3.1a11.89,11.89,0,0,1-1.58,0c-1.33-.19-1.66.41-1.61,1.64,0,.84.46,2.38-.37,2.43-2.12.13-1.45,1.51-1.45,2.52q0,33.24,0,66.49a4.58,4.58,0,0,1-.55,3c-1.77,2.35-2,5-1.9,7.89.07,1.46.4,3-.46,4.8-.83-1.15-.54-2.14-.54-3q0-71,0-142c0-1.65-.25-2.32-2.14-2.26-4.66.16-9.32.08-14,0-1.28,0-2.47-.12-2.12,1.76.15.78-.28,1-1,1.06-2.69.29-2.88.16-2.88-2.61C314.83.39,314.68.24,311,0c0,1.28-.1,2.56,0,3.82.19,2.08-.72,2.79-2.68,2.44-1.32-.24-1.76.19-1.77,1.65-.08,6.83-.32,13.65-.49,20.48-.51,20.61-1.67,41.22-1.33,61.85.18,10.57.55,21.14.9,31.72.06,1.65-.41,2.36-2.14,2.18a50.74,50.74,0,0,0-8,0c-2.4.12-2.83-.32-2.83-2.77,0-15.17,0-30.35,0-45.52,0-1.53-.3-2-1.93-2-5.87.11-11.74.05-17.6,0-.53,0-1.38.17-1.53-.08-1.29-2.15-3.33-1.1-5-1.14-5.71-.13-11.43,0-17.15-.1-1.92-.05-2.32.55-2.31,2.38.07,19.91,0,39.81,0,59.72,0,.53,0,1.05,0,1.58,0,.89-.33,1.21-1.23,1a6.59,6.59,0,0,0-2-.21c-2.12.22-2.52-.76-2.52-2.72.08-19.83,0-39.67.08-59.5,0-1.69-.35-2.15-2.17-2.3C233.59,72,227.6,74,221.88,71.22c-1.67-.82-3.84-.59-5.75-1-4.6-1-9.44-.8-13.84-2.8-3-1.39-6.13-2.72-9.37-4.15,0,1.9-.09,3.53,0,5.15,1.3,20.1,1.09,40.22,1.11,60.34,0,1.68-.35,2.12-2.1,2-5.53-.43-11.09-.75-16.64-.92a340.5,340.5,0,0,0-61.37,3.41c-17.54,2.67-35.17,4.44-52.84,5.89-1,.09-1.49,0-1.47-1.21.07-4.62,0-9.24,0-13.67,1.69-.33,2.25.74,2.8,1.62,1.39-.75-1-3.17,1.68-3.13-1.1-1,.73-3.07-1.36-3.8h2.87c-1.24-1.45-2.88-1.59-4.25-2.21-.35-.15-.89.17-.78-.57.38-2.68-1.06-4.64-3.17-6.8,2.05.73,3.24,2,5.11,2.16-.88-2.46-3.13-3.41-4.5-5.07l3.17-.9c-2.64-1.73-4.78-.88-6.91.51-.06-1.4,1.29-2.11.8-3.39a2.59,2.59,0,0,0-.63.43c-.92,1.37-1.55,3.31-3.86,1.9-.11-.07-.38.1-.57.16.77,1.79-.83.9-1.36,1.14a4.54,4.54,0,0,0-2.06,1.33c1.4.44,2.69,0,4.07.16-.9.87-2.27,1-2.72,2.21.75.34,1.35-.26,2.1-.32-.85,1-1.88,1.8-1.74,3.21.83.09,1.15-.76,2-1a6.79,6.79,0,0,0-.37,4.83c1.29-.82,1.26-2,1.78-3,.43.39.19,2.61,1.58.28.41,3.41.06,6.57.34,9.73.35,4,.14,8.11.15,12.16,0,3.61,0,3.47-3.67,4-2,.31-2.48-.32-2.62-2.21-1.19-15.11-2.47-30.21-3.75-45.31-.11-1.3-.44-2.55,1.31-3,.61-.17.55-.77.63-1.3.31-2-.15-3.61-2.39-4.19.56-1,2.09-1,1.93-2.21-.12-.89-1-1-1.73-1.17-.48,0-1,0-1-.69h0c-.7.06-1.72,1-1.83-.63-2,.74-4,.29-6.06.57a11.43,11.43,0,0,0-3,.8c-2.21,1-2.28,1.22-.31,2.59.88.62.61.81-.06,1.16,1.37,1.73,1.16,3-.61,4a4.23,4.23,0,0,0-.78.75c1,.7,2,1.15,1.79,2.88-1.09,11.33-2,22.69-2.95,34-1,11.65-2,23.29-2.89,35-.1,1.25-.38,1.63-1.65,1.61-5-.07-9.92-.06-14.88,0a9.61,9.61,0,0,0-9.29,7.64c-.42,1.42.66,1.46,1.53,1.56a31.07,31.07,0,0,0,3.61.06H954.28c1,0,2,0,2.94,0a2.89,2.89,0,0,0,2.1-.63A9.61,9.61,0,0,0,949.74,162.6Zm-917-51.49c-1.14.12-.63-.92-.58-1.43.08-.85-.56-2.27.86-2.33,1.11,0,0,1.25.54,1.64C33.41,109.85,34,111,32.78,111.11ZM43,86.35c0-.52-.33-1.4.49-1.45s.78.85.85,1.49c-.1.53.2,1.37-.68,1.35S43,86.9,43,86.35Zm10.5,54.73,0,.19H50.2l-.06-.19ZM51.22,162.6c-1.23.14-1.63-.29-1.71-1.58q-.34-6.06-1-12.09c-.21-1.78.34-2.47,2.09-2.32a5.07,5.07,0,0,0,1.34-.12c1.34-.29,1.88.09,1.77,1.58-.14,2,0,4,0,6.06h.08c0,2.32,0,4.64,0,7C53.76,163.1,52.3,162.47,51.22,162.6Zm3.75-50c.09-1.75,1.72,2.17,1.4-.74a2.25,2.25,0,0,1,2,2.27,8,8,0,0,0,1.29,3.44c-1-.54-1.49-1-1.92-1C54.16,116.79,55,114.27,55,112.61Zm3.47,35.11q0,6.51-.07,13c0,1,.14,1.88-1.42,1.92s-1.53-.92-1.53-2c0-2.17,0-4.33,0-6.5h-.22c0-2.1.14-4.2-.05-6.28-.16-1.75.89-1.67,2-1.83C58.69,145.83,58.45,146.85,58.44,147.72Zm.38-24.25a63.45,63.45,0,0,0-.07,7.43H58.6a64.43,64.43,0,0,0,0,6.52c.22,2.2-1.22,1.94-2.5,2-1.77.12-.87-1.26-.9-1.89-.17-3.52-.08-7.05-.32-10.57-.13-1.86,1-3.07,1.71-4.5.18-.34.67-.64.75-.06C57.51,123.36,59,121.79,58.82,123.47Zm107.57,7.34a21.38,21.38,0,0,1,8.55.66h-8.56Zm-4.32-.08v.73h-8.56C156.33,130.34,159.2,130.69,162.07,130.73Zm-25.87,1.09c0,.2.09.4.13.61l-8.54.79-.06-.58Zm-13,1.9-8.52,1.07A16.62,16.62,0,0,1,123.21,133.72Zm-25.7,3.59-8.63,1A17,17,0,0,1,97.51,137.31Zm-13.13.82a25.52,25.52,0,0,1-8.26,1.34l-.06-.55ZM70.5,146.4a87.25,87.25,0,0,0-.31,11.66c0,1.62-1.8,2.59-1.44,4.31,0,0-.24.18-.37.18-2.69,0-5.4.07-8.09,0-.88,0-.55-.92-.55-1.45,0-2.32,0-4.64,0-7s.05-4.49,0-6.74c0-1,0-1.46,1.21-1.52,2.76-.14,5.52-.43,8.28-.73C70.26,145,70.66,145.22,70.5,146.4ZM63,140.71c2.87-1.31,5.79-1,8.64-1.46,0,.22.05.44.07.66Zm44.32,1.68a132.17,132.17,0,0,0-.17,15.29c0,1.85-2.11,2.8-1.48,4.69a12.92,12.92,0,0,1-1.52.21H91c-4.28,0-8.56,0-12.85,0-1.31,0-1.65-.31-2.29-1.72-2.16-4.81-.29-9.78-1.28-14.56-.25-1.19,0-1.65,1.41-1.77,9.94-.91,19.88-1.74,29.73-3.44C106.79,140.93,107.41,140.93,107.28,142.39Zm-5.44-5.72-.09-.57,8.47-1.34c.06.21.13.43.19.65Zm42.28,2.18a104.84,104.84,0,0,0-.27,16.62c.08,2.36-1,4.31-1.21,6.49-.11,1-1.07.6-1.66.61-4.43,0-8.86,0-13.29,0s-8.71,0-13.07,0c-1.12,0-1.33-.33-1.81-1.46-2.68-6.34-.16-13-1.53-19.36-.24-1.12.23-1.53,1.41-1.69q14.72-2,29.53-3.08C143.81,136.89,144.32,137.17,144.12,138.85Zm-1.42-7.35a16.27,16.27,0,0,1,6.59-.13A10.53,10.53,0,0,1,142.7,131.5Zm37.59,7.76a126.87,126.87,0,0,0-.17,17.33c.09,2.12-1.55,3.53-1.33,5.55.07.67-.83.43-1.3.43-8.8,0-17.6,0-26.4,0-1,0-1.2-.31-1.54-1.31-2.51-7.45-.24-15.14-1.38-22.63-.26-1.7.46-2.09,1.93-2.08,4.74,0,9.48,0,14.21,0,4.51,0,9,.1,13.53,0C180,136.49,180.48,137.22,180.29,139.26Zm-1.11-7.91a15.64,15.64,0,0,1,6.53.18A10.35,10.35,0,0,1,179.18,131.35ZM194,150.26c0,3.6,0,7.2,0,10.79,0,1.15-.3,1.65-1.52,1.55s-2.25,0-3.38,0c-1.54-.06-2.84.51-3.58-2.15a24.45,24.45,0,0,1-.83-5.79c-.21-5.31.27-10.64-.38-15.94-.2-1.65.42-1.85,1.82-1.69a62.69,62.69,0,0,0,6.27.44c1.34,0,1.62.61,1.6,1.8C194,142.92,194,146.59,194,150.26Zm33.3-54.69c.56,0,1.36-.21,1.29.74s-1,.45-1.56.65c-.49-.09-1.19.21-1.2-.62C225.83,95.19,226.73,95.6,227.31,95.57Zm-1.47-9.24c0-.94.79-.69,1.31-.68s1.53-.32,1.43.78c-.07.91-.93.36-1.42.54C226.7,86.79,225.85,87.34,225.84,86.33Zm0,6.59c0-1,.89-.42,1.36-.61.48.19,1.34-.38,1.39.57,0,1.1-.89.72-1.47.75S225.8,93.88,225.84,92.92ZM227.23,119c.53,0,1.32-.27,1.37.63s-.82.51-1.29.69c-.51-.22-1.5.43-1.45-.72C225.89,118.69,226.72,119,227.23,119Zm-1.39-2.66c-.06-1,.78-.69,1.27-.66s1.52-.44,1.48.67c0,.85-.85.55-1.38.63C226.69,116.89,225.9,117.23,225.84,116.35Zm1.48-6c-.61-.12-1.53.31-1.47-.81,0-.82.78-.54,1.2-.5s1.48-.46,1.54.6S227.8,110.23,227.32,110.34Zm-.08-6.69c-.47-.2-1.3.39-1.39-.58s.69-.78,1.23-.74,1.52-.38,1.51.71S227.71,103.47,227.24,103.65Zm.08-3.33c-.6-.13-1.52.3-1.47-.8,0-.78.76-.55,1.19-.51s1.5-.43,1.56.6S227.8,100.22,227.32,100.32Zm-.24-10.13c-.5,0-1.34.3-1.23-.69s.88-.51,1.38-.61c.55.06,1.38-.19,1.37.66C228.59,90.62,227.64,90.15,227.08,90.19Zm0-6.56c-.56-.06-1.38.18-1.28-.74s1-.49,1.59-.56,1.17-.22,1.16.56C228.59,84,227.68,83.51,227.13,83.63Zm0-4.74c.59,0,1.52-.36,1.49.77s-.94.38-1.29.66c-.6-.18-1.42.3-1.47-.69S226.57,78.86,227.11,78.89Zm0,26.66c.63.09,1.46-.2,1.48.65,0,1.11-.93.63-1.48.66s-1.33.33-1.27-.65S226.71,105.71,227.11,105.55Zm0,6.7c.59,0,1.52-.35,1.46.77-.05,1-.9.47-1.39.62-.5-.14-1.32.33-1.36-.66S226.58,112.23,227.13,112.25Zm-4.29-33.38c.6,0,1.55-.34,1.56.72s-1.05.43-1.44.76c-.67-.21-1.67.31-1.56-.87C221.49,78.58,222.3,78.86,222.84,78.87Zm0,44.73c-.52-.15-1.37.29-1.43-.57-.08-1,.85-.79,1.44-.78s1.56-.29,1.54.69S223.39,123.42,222.84,123.6Zm1.55,2.81c-.07.88-.9.6-1.43.59s-1.55.34-1.56-.68,1-.45,1.53-.67C223.48,125.82,224.47,125.28,224.39,126.41Zm-1.53-6.07c-.51-.18-1.37.35-1.46-.55-.1-1.08.84-.81,1.44-.8s1.55-.34,1.55.68S223.38,120.12,222.86,120.34Zm.1-14.78c.55,0,1.36-.21,1.43.6.1,1.18-1,.46-1.33.8-.67-.21-1.67.31-1.66-.72S222.36,105.58,223,105.56ZM221.4,103c0-1,1-.67,1.55-.69s1.54-.28,1.44.8c-.08.9-.94.37-1.45.56C222.42,103.45,221.41,104.09,221.4,103Zm3,6.62c0,1-.95.69-1.54.7s-1.54.3-1.45-.79c.08-.9.94-.38,1.45-.56C223.37,109.19,224.38,108.54,224.39,109.62ZM223,112.23c.54,0,1.35-.29,1.43.61.11,1.18-.89.65-1.44.83-.56-.19-1.56.37-1.55-.73S222.36,112.24,223,112.23Zm0-18.54c-.66-.1-1.53.21-1.51-.67,0-1.26,1.11-.6,1.71-.67s1.38-.36,1.28.65S223.34,93.45,222.92,93.69Zm-1.51-4.21c.06-.81.88-.6,1.42-.59s1.55-.28,1.57.68-1,.39-1.45.71C222.32,90.06,221.32,90.61,221.41,89.48Zm1.44-5.82c-.59-.11-1.57.23-1.43-.81s1.06-.49,1.64-.53,1.37-.28,1.34.62S223.44,83.54,222.85,83.66Zm.05,2c.58,0,1.56-.33,1.49.74s-1.11.24-1.48.65c-.61-.21-1.49.29-1.51-.65S222.31,85.64,222.9,85.64Zm.06,9.91c.54,0,1.35-.29,1.43.61.11,1.18-.89.65-1.44.83-.56-.19-1.56.37-1.55-.73S222.36,95.57,223,95.55Zm-6.28-16.68c.57.13,1.49-.36,1.47.79,0,.83-.72.64-1.16.59s-1.5.46-1.59-.62S216.13,78.93,216.68,78.87Zm.1,28c-.5-.14-1.36.31-1.38-.59,0-1,.91-.69,1.49-.72s1.32-.21,1.26.71S217.26,106.75,216.78,106.9Zm1.37,2.77c-.05,1-.87.5-1.27.68-.61-.12-1.44.26-1.47-.65,0-1.13.93-.63,1.46-.66S218.2,108.63,218.15,109.67Zm-1.4-6c-.47-.18-1.35.36-1.35-.61s.93-.67,1.51-.71,1.32-.2,1.23.75S217.22,103.45,216.75,103.65Zm0-14.76c.51.1,1.3-.26,1.38.62s-.76.71-1.25.67-1.52.45-1.5-.65C215.41,88.68,216.23,89,216.77,88.89Zm-1.37-2.6c0-.91.83-.57,1.37-.66.5.12,1.29-.3,1.37.63s-.77.69-1.24.66S215.41,87.39,215.4,86.29Zm2.75,6.7c-.05.94-.84.56-1.36.66-.52-.1-1.35.28-1.38-.63,0-1.13.93-.63,1.46-.66S218.2,92,218.15,93Zm-1.47,2.55c.57.13,1.49-.35,1.47.8,0,.83-.72.64-1.16.58s-1.5.47-1.59-.61S216.13,95.6,216.68,95.54Zm.21-13.2c.49,0,1.34-.32,1.26.66s-.86.53-1.38.63c-.54-.07-1.36.21-1.37-.64C215.38,81.89,216.35,82.37,216.89,82.34Zm-.1,29.88c.53.1,1.34-.27,1.35.69,0,1.17-.95.64-1.5.69s-1.34.29-1.24-.73S216.27,112.32,216.79,112.22Zm1.36,7.42c.06,1-.82.51-1.28.69-.51-.21-1.5.42-1.46-.71,0-.91.85-.61,1.38-.61S218.09,118.71,218.15,119.64Zm-1.24-4c.5,0,1.34-.3,1.23.69s-.88.5-1.38.61c-.55-.07-1.38.19-1.37-.66C215.4,115.26,216.36,115.73,216.91,115.69Zm-4.54-36.8c.59,0,1.51-.28,1.48.74s-1.06.36-1.45.69c-.59-.19-1.41.31-1.46-.66S211.79,78.9,212.37,78.89Zm1.38,4c0,.91-.87.5-1.39.63-.48-.15-1.36.34-1.36-.62s.88-.56,1.37-.56S213.74,82,213.75,82.93Zm-1.45,2.71c.6,0,1.54-.32,1.56.66s-1,.51-1.5.68c-.5-.19-1.48.43-1.42-.74C211,85.32,211.79,85.64,212.3,85.64Zm1.46,4c0,.93-.9.42-1.39.58-.48-.15-1.36.38-1.37-.59s.87-.58,1.37-.59S213.76,88.69,213.76,89.59Zm-1.38,2.76c.54,0,1.52-.41,1.48.64s-1,.57-1.57.68c-.51-.1-1.32.29-1.35-.64C210.9,91.88,211.86,92.36,212.38,92.35Zm-.09,4.57c-.49,0-1.3.38-1.35-.58-.05-1.14.88-.64,1.34-.81.67.11,1.61-.25,1.56.78S212.85,96.9,212.29,96.92Zm1.47,2.69c0,.9-.87.5-1.4.63-.48-.16-1.36.34-1.35-.62s.87-.56,1.36-.56S213.75,98.69,213.76,99.61Zm-1.38,2.7c.59,0,1.54-.28,1.49.74s-1,.4-1.57.62c-.48-.19-1.32.37-1.36-.61S211.81,102.33,212.38,102.31Zm1.37,4c-.12,1-1.07.36-1.59.58-.46-.11-1.25.24-1.16-.6.11-1.07,1-.5,1.6-.58S213.84,105.5,213.75,106.27Zm-2.81,3.24c.19-1,1.1-.28,1.62-.54.5.16,1.41-.29,1.31.67-.12,1.11-1.13.61-1.78.69S210.78,110.41,210.94,109.51Zm1.5,34.21c-.63-.13-1.56.32-1.5-.8,0-1,.88-.56,1.35-.54s1.52-.46,1.57.57S212.94,143.57,212.44,143.72Zm1.41,2.57c0,1.13-1,.42-1.39.75-.63-.22-1.6.36-1.51-.83.07-.93.85-.61,1.36-.61S213.81,145.28,213.85,146.29Zm-1.55,6.06c.6,0,1.54-.32,1.56.66s-1,.51-1.5.68c-.5-.2-1.48.43-1.42-.74C211,152,211.79,152.34,212.3,152.35Zm.12-25.32c-.52-.15-1.44.38-1.49-.71s.81-.65,1.29-.62,1.5-.45,1.64.5S213.06,127,212.42,127Zm1.43,2.57c0,1.14-1,.43-1.39.76-.63-.22-1.59.37-1.51-.82.06-.93.84-.62,1.35-.61S213.8,128.6,213.85,129.6Zm-1.5-9.31c-.48,0-1.31.44-1.41-.49-.12-1.11.79-.76,1.38-.83.59.09,1.53-.29,1.55.7S212.89,120.28,212.35,120.29Zm.11-6.61c-.63-.22-1.59.37-1.51-.82.06-.93.84-.61,1.35-.61s1.5-.32,1.55.68S212.84,113.35,212.46,113.68Zm1.29,2.6c0,.91-.87.5-1.39.64-.48-.16-1.36.33-1.36-.62s.88-.56,1.37-.56S213.74,115.36,213.75,116.28Zm-7.47-37.42c.62,0,1.54-.26,1.43.85-.09.91-.93.46-1.45.6-.52-.13-1.36.3-1.43-.61C204.74,78.61,205.66,78.85,206.28,78.86Zm1.37,4.07c0,.86-.83.62-1.37.63s-1.37.22-1.39-.62.91-.38,1.28-.64C206.76,82.49,207.64,82,207.65,82.93Zm-1.49,2.69c.6,0,1.51-.33,1.55.71s-.84.51-1.35.67c-.53-.21-1.5.41-1.54-.68C204.79,85.47,205.6,85.58,206.16,85.62Zm.19,6.72c.49,0,1.36-.36,1.36.59s-.94.63-1.48.75c-.6,0-1.41.17-1.4-.7C204.83,91.87,205.8,92.37,206.35,92.34Zm-.17-3.4c.51.11,1.34-.27,1.46.54.14,1-.77.67-1.25.67s-1.35.37-1.48-.46S205.62,89,206.18,88.94Zm-4.32,21.39c-.55-.08-1.41.23-1.35-.7s1-.54,1.57-.59,1.19-.34,1.23.48C203.37,110.65,202.43,110.22,201.86,110.33Zm1.45,2.71c-.14,1.09-1.11.26-1.46.61-.68-.08-1.49.18-1.34-.8s1-.54,1.61-.6S203.43,112.14,203.31,113Zm-1.43-12.73c-.54-.07-1.39.21-1.38-.66,0-1.08,1-.6,1.55-.64s1.36-.3,1.26.69S202.42,100.22,201.88,100.31Zm1.43,2.63c.1,1-.8.69-1.27.66s-1.52.48-1.53-.64c0-.92.85-.56,1.38-.65C202.42,102.41,203.23,102,203.31,102.94Zm-1.37-6c-.62-.15-1.46.26-1.44-.7s.92-.69,1.5-.72,1.32-.23,1.32.68C203.33,97.43,202.3,96.66,201.94,97Zm0-13.36c-.53-.1-1.33.27-1.44-.59s.73-.74,1.24-.71,1.53-.44,1.57.62C203.35,83.82,202.5,83.57,202,83.63Zm1.36,2.7c-.06,1.06-1,.54-1.57.59s-1.18.34-1.23-.48c-.07-1.16.9-.65,1.35-.82C202.51,85.71,203.36,85.4,203.31,86.33Zm-2.8,6.52c.08-1,1-.19,1.34-.58.59.22,1.47-.33,1.47.68s-.81.7-1.35.68S200.43,94,200.51,92.85Zm1.52-2.6c-.6-.18-1.47.31-1.52-.6,0-1.07.9-.71,1.49-.74s1.35-.21,1.32.7S202.4,90,202,90.25Zm0-11.36c.54,0,1.33-.21,1.3.7,0,1.11-1,.51-1.5.7-.52-.12-1.36.27-1.33-.69S201.44,78.93,202,78.89Zm-.2,43.38c.59,0,1.55-.34,1.49.74-.05.9-.93.42-1.42.57-.52-.14-1.36.31-1.4-.62S201.28,122.24,201.82,122.27Zm0,23.31c.56.11,1.48-.33,1.46.77,0,.94-.85.63-1.35.6s-1.5.45-1.47-.7C200.53,145.34,201.32,145.66,201.86,145.58ZM200.51,143c.1-1.09,1.07-.36,1.58-.61.46.13,1.22-.27,1.23.57,0,1.13-.92.72-1.51.75S200.42,143.9,200.51,143Zm1.4-2.69c-.5-.15-1.38.32-1.4-.59,0-1.07.92-.69,1.51-.73s1.36-.2,1.3.72S202.42,140.11,201.91,140.26Zm1.4-10.55c-.15,1-1.05.51-1.61.57s-1.34.22-1.19-.75,1-.47,1.55-.62C202.7,128.92,203.44,128.81,203.31,129.71Zm-2.81-3.44c0-1,1-.29,1.28-.65.6.24,1.48-.34,1.53.62.05,1.11-.91.71-1.5.74S200.46,127.23,200.5,126.27Zm1.62-5.9c-.64-.26-1.64.39-1.6-.76,0-.91.87-.6,1.4-.6s1.33-.29,1.4.63C203.4,120.76,202.42,120,202.12,120.37Zm-.33,28.6c.6.19,1.47-.3,1.52.61.05,1.07-.9.71-1.49.74s-1.36.21-1.33-.7S201.41,149.22,201.79,149Zm.07,6.65c.59,0,1.55-.31,1.44.78-.09.88-1,.37-1.45.53-.52-.12-1.37.29-1.36-.65S201.32,155.6,201.86,155.62Zm.12,4.74c-.55-.13-1.5.36-1.48-.77,0-.84.78-.58,1.2-.52s1.51-.52,1.61.56S202.54,160.29,202,160.36Zm0-6.68c-.49-.19-1.36.38-1.45-.53-.11-1.12.85-.77,1.44-.79s1.35-.26,1.36.67S202.45,153.5,202,153.68ZM202,117c-.58,0-1.54.32-1.45-.76.06-.89.93-.39,1.43-.55.51.13,1.37-.3,1.37.64S202.52,117,202,117Zm0-10.06c-.49-.16-1.36.35-1.44-.53-.11-1.09.85-.76,1.44-.78s1.36-.22,1.37.66S202.48,106.78,202,106.9Zm4.31,53.49c-.62-.07-1.55.22-1.44-.85.1-.87.95-.5,1.45-.5s1.35-.38,1.42.53C207.79,160.66,206.85,160.29,206.27,160.39Zm-1.37-4.06c0-.87.8-.67,1.34-.66s1.37-.25,1.41.59-.85.49-1.34.64C205.81,156.74,204.94,157.23,204.9,156.33Zm1.27-2.68c-.49,0-1.37.35-1.35-.59s.94-.66,1.54-.75c.55.06,1.37-.19,1.35.7C207.69,154.12,206.73,153.62,206.17,153.65Zm.05-11.33c.55.17,1.51-.36,1.48.73,0,.89-.85.65-1.38.64s-1.53.28-1.49-.77S205.73,142.48,206.22,142.32Zm-1.32-2.68c0-.88.83-.57,1.28-.68.61.09,1.45-.17,1.47.65s-.85.57-1.36.57S204.93,140.54,204.9,139.64Zm0,10.06c-.08-1,.81-.63,1.3-.62s1.36-.35,1.43.5-.79.6-1.29.71C205.81,150.2,205,150.54,204.91,149.7Zm1.37-2.67c-.54-.18-1.54.35-1.45-.82.06-.89.87-.65,1.42-.64s1.53-.28,1.46.82C207.65,147.33,206.81,146.88,206.28,147Zm.06-16.68c-.55-.17-1.52.36-1.52-.75,0-.88.79-.74,1.36-.71s1.53-.32,1.54.76S206.88,130.23,206.34,130.35Zm-.06-28c.6,0,1.53-.26,1.42.82-.09.9-.94.37-1.44.55-.5-.17-1.36.34-1.43-.57S205.67,102.29,206.28,102.3Zm-1.37-2.63c-.08-1,.81-.63,1.3-.62s1.36-.36,1.44.5-.79.6-1.3.71C205.81,100.17,205,100.51,204.91,99.67Zm2.74,6.61c0,1-.94.32-1.28.62-.61-.17-1.49.27-1.48-.65s.86-.62,1.4-.61S207.67,105.4,207.65,106.28ZM206.16,109c.56,0,1.51-.46,1.55.63,0,.89-.78.66-1.33.72-.6-.09-1.52.28-1.56-.73S205.67,109,206.16,109Zm.17,3.2c.56,0,1.36-.23,1.38.69,0,1.15-1,.59-1.49.77-.53-.12-1.39.27-1.4-.67S205.72,112.22,206.33,112.21Zm-.08,6.74c.57.11,1.51-.29,1.46.8-.05.92-.9.56-1.4.55s-1.51.41-1.47-.69C204.87,118.74,205.69,119,206.25,119Zm-1.34-2.74c.09-.87.94-.36,1.46-.53.46.17,1.38-.31,1.27.68-.08.83-.91.54-1.45.55S204.81,117.11,204.91,116.21Zm2.74,6.78c-.06.88-.92.39-1.42.56-.49-.15-1.39.3-1.33-.65s.88-.59,1.42-.58S207.71,122.09,207.65,123Zm-1.3,2.7c.49,0,1.36-.35,1.36.59s-.94.64-1.48.75c-.6,0-1.41.17-1.4-.69C204.83,125.23,205.8,125.72,206.35,125.69ZM206.18,97c-.55-.1-1.4.23-1.36-.71s.94-.73,1.56-.75,1.36-.18,1.34.73C207.69,97.37,206.73,96.82,206.18,97Zm7.45,26.3h-3.09A2,2,0,0,1,213.63,123.29Zm-1.5,37.07c-.57.06-1.33.14-1.19-.78s1.07-.32,1.59-.58c.5.16,1.4-.29,1.34.64C213.79,160.78,212.77,160.29,212.13,160.36Zm-1.16-4c.89-.59,1.77-.59,3.13,0A3,3,0,0,1,211,156.37Zm0-6.74c.87-.62,1.76-.59,3.27-.11A3.28,3.28,0,0,1,211,149.63Zm6.13-6.63a.76.76,0,0,1-.92.7.67.67,0,0,1-.83-.74c0-.66.46-.64.9-.62S217.18,142.33,217.09,143Zm.91-9.68c-.93.5-1.74,0-2.59-.4a2.24,2.24,0,0,1,2.68-.19A.7.7,0,0,1,218,133.32Zm-1.15-3c-.53-.18-1.52.41-1.45-.78.06-.92.87-.61,1.4-.62s1.31-.28,1.35.67S217.37,130.19,216.85,130.32Zm-1.44-3.94c0-1.14.93-.64,1.46-.66s1.33-.41,1.28.63-.87.5-1.27.68C216.27,126.9,215.44,127.28,215.41,126.38Zm1.43-2.8c-.51-.19-1.5.41-1.44-.73,0-.84.87-.58,1.4-.59s1.32-.24,1.35.64S217.35,123.45,216.84,123.58Zm0-23.26c-.62-.1-1.44.22-1.49-.63-.05-1.12.92-.64,1.46-.68s1.33-.32,1.3.64S217.3,100.18,216.89,100.32ZM222.73,99c.58,0,1.52-.42,1.65.52s-.84.71-1.42.82c-.6-.12-1.52.26-1.57-.72S222.22,99,222.73,99Zm.11,16.59c.64.23,1.64-.32,1.55.8-.07.82-.89.61-1.43.6s-1.55.28-1.56-.68S222.43,115.91,222.84,115.59Zm.07,13.32c.6,0,1.53-.32,1.49.78,0,.94-.88.51-1.41.65-.55-.19-1.53.39-1.59-.67S222.31,128.91,222.91,128.91Zm0,4.78c-.58-.12-1.56.26-1.48-.77s1-.54,1.61-.57,1.36-.3,1.38.58C224.42,134,223.47,133.57,222.89,133.69Zm1.5,9.19c.11,1.11-.87.68-1.36.85-.66-.15-1.64.3-1.63-.74s1-.59,1.56-.61S224.31,142,224.39,142.88Zm-1.39,2.7c.55,0,1.37-.25,1.4.66,0,1.09-.92.64-1.51.78-.53-.19-1.55.38-1.49-.76S222.4,145.61,223,145.58Zm-.1,4.79c-.58-.12-1.56.26-1.49-.77s1-.54,1.6-.57,1.36-.31,1.39.57C224.42,150.63,223.48,150.25,222.9,150.37Zm1.49,2.6c.05,1.16-1,.42-1.37.76-.66-.21-1.65.33-1.61-.74s1-.62,1.59-.65S224.36,152.09,224.39,153Zm-1.45,2.63c.59,0,1.52-.27,1.45.78s-1,.32-1.33.61c-.65-.22-1.64.33-1.66-.69S222.35,155.6,222.94,155.6Zm1.24,4.6a1.23,1.23,0,0,1-1.61-.18c-.3-.32-.91-.09-1.16-.91a8.88,8.88,0,0,1,1.41-.08c.54.05,1.24-.31,1.57.39A.84.84,0,0,1,224.18,160.2Zm3-37.93c.53,0,1.35-.26,1.4.59.06,1.13-.93.53-1.44.72-.51-.13-1.36.29-1.31-.68S226.67,122.26,227.19,122.27Zm1.4,4c.06.92-.79.6-1.27.71-.61-.12-1.53.31-1.47-.81,0-.83.78-.54,1.2-.5S228.53,125.25,228.59,126.31Zm-1.28,2.61c.56,0,1.36-.2,1.29.74-.08,1.16-1.1.32-1.45.67-.6-.1-1.3.2-1.31-.64C225.83,128.55,226.73,129,227.31,128.92Zm1.28,4.1c0,.85-.83.57-1.37.64-.51-.09-1.3.26-1.38-.62s.77-.71,1.26-.67S228.61,131.92,228.59,133Zm-1.36,27.34c-.5-.12-1.29.31-1.38-.62s.76-.7,1.24-.67,1.49-.47,1.5.63C228.6,160.61,227.76,160.28,227.23,160.36Zm0-3.43c-.49-.14-1.31.33-1.37-.6s.74-.73,1.27-.71,1.51-.33,1.48.72C228.56,157.24,227.71,156.79,227.21,156.93Zm-.06-3.22c-.57-.16-1.3.23-1.31-.61,0-1.12.9-.7,1.47-.74s1.36-.22,1.28.71C228.51,154.22,227.48,153.28,227.15,153.71Zm-1.31-4.12c0-.79.73-.59,1.17-.55s1.48-.44,1.58.57-.73.67-1.31.73C226.75,150.21,225.84,150.68,225.84,149.59Zm1.48-2.56c-.58-.19-1.4.31-1.48-.67s.7-.8,1.25-.76,1.51-.38,1.51.74S227.69,146.76,227.32,147Zm0-3.37c-.57,0-1.51.34-1.42-.78s1-.19,1.3-.58c.6.21,1.46-.32,1.45.68S227.81,143.68,227.27,143.66Zm9-.12s0-.54.1-.56a4.38,4.38,0,0,1,2.78.5A3.7,3.7,0,0,1,236.29,143.54Zm2.82,2.69c0,1.25-1.05.65-1.65.72s-1.32.31-1.24-.68,1-.54,1.5-.69C238.29,145.65,239.11,145.37,239.11,146.23ZM237.45,127c-.53,0-1.33.21-1.24-.73.1-1.1,1-.38,1.54-.62.51.16,1.4-.32,1.39.59C239.13,127.43,238.09,126.94,237.45,127Zm1.67,2.6c0,1.14-1,.43-1.38.76-.63-.22-1.59.37-1.51-.82.06-.93.84-.62,1.35-.61S239.08,128.6,239.12,129.6Zm-1.56-9.26c-.48-.18-1.32.37-1.35-.61s.89-.72,1.46-.74,1.54-.28,1.47.75S238.1,120.14,237.56,120.34Zm.19-26.65c-.6-.16-1.53.35-1.54-.75s.84-.63,1.31-.59,1.51-.48,1.62.52S238.28,93.56,237.75,93.69Zm1.37,2.53c.1,1.19-1,.43-1.34.79-.63-.24-1.59.38-1.56-.79,0-.93.81-.67,1.32-.65S239,95.21,239.12,96.22Zm-.23,3.32a3,3,0,0,1-2.87.22C237,98.7,238,99.14,238.89,99.54ZM237.68,109c.54.18,1.53-.36,1.45.73s-1,.6-1.59.62-1.33.28-1.32-.65C236.22,108.55,237.17,109.18,237.68,109Zm-1.43-2.61a2.51,2.51,0,0,1,2.65-.16C238.08,107,237.17,106.79,236.25,106.36Zm1.36,5.86c.6.11,1.55-.3,1.51.8,0,.93-.9.6-1.41.58s-1.52.46-1.48-.72C236.27,111.9,237.1,112.34,237.61,112.22Zm.16-8.51c-.63-.25-1.59.38-1.55-.78,0-.93.84-.62,1.35-.62s1.52-.33,1.57.66C239.21,104.15,238.11,103.31,237.77,103.71Zm-1.52-14.06c.9-.56,1.78-.59,3.22,0C238,90.2,237.15,90.21,236.25,89.65Zm0-3.29c0-1.11.9-.7,1.47-.72s1.54-.28,1.46.75-1,.39-1.59.6C237.07,86.81,236.23,87.35,236.21,86.36Zm1.42-7.47c.59,0,1.52-.29,1.49.73s-1,.48-1.53.67c-.49-.16-1.31.35-1.37-.62S237.05,78.9,237.63,78.89Zm1.8,3.89a4,4,0,0,1-3.47.28C237.07,82.09,238,82.41,239.43,82.78Zm-.53,33.35c-.88.69-1.76.65-3.08.18A3.25,3.25,0,0,1,238.9,116.13Zm-5.42-12.42c-.61-.21-1.47.3-1.56-.59-.11-1.06.81-.83,1.42-.82s1.52-.29,1.45.8S233.81,103.37,233.48,103.71Zm1.25,2.61c-.08.86-.93.5-1.43.51s-1.38.34-1.31-.62.9-.5,1.44-.59C233.94,105.73,234.81,105.4,234.73,106.32ZM232,99.65c0-.94.84-.61,1.33-.6s1.36-.36,1.42.52-.8.58-1.31.69C232.87,100.17,232,100.49,232,99.65ZM233.39,97c-.58,0-1.52.33-1.48-.76,0-.9.85-.62,1.42-.68.59.1,1.52-.28,1.47.82C234.75,97.28,233.91,97,233.39,97Zm0-3.27c-.71,0-1.51.15-1.51-.71,0-1.1,1-.61,1.53-.64s1.35-.36,1.36.59S233.83,93.5,233.42,93.69ZM232,89.62c0-.89.83-.58,1.29-.69.59.1,1.44-.21,1.47.63s-.85.59-1.35.59S232,90.51,232,89.62Zm1.36-10.76c.61,0,1.52-.28,1.46.82s-1,.39-1.33.67c-.65-.2-1.64.32-1.56-.85C232,78.61,232.79,78.85,233.34,78.86ZM234.73,83c-.09.82-.92.53-1.45.55s-1.39.2-1.29-.7.95-.36,1.46-.53C233.92,82.5,234.83,82,234.73,83Zm-1.47,2.61c.6,0,1.52-.33,1.54.72s-.86.5-1.37.66c-.52-.21-1.51.41-1.52-.69C231.89,85.45,232.7,85.59,233.26,85.62Zm0,23.39c.55,0,1.51-.46,1.53.65,0,.9-.81.6-1.27.71-.68-.1-1.59.26-1.61-.76S232.76,109,233.26,109Zm.16,43.32c.54,0,1.34-.24,1.37.65.05,1.23-1,.35-1.36.76-.63-.2-1.51.28-1.52-.65S232.81,152.34,233.42,152.33ZM232,149.65c0-.92.87-.47,1.38-.61.49.15,1.36-.32,1.37.59s-.83.62-1.36.64S232,150.49,232,149.65Zm2.75,6.58c.09,1-.82.51-1.3.67-.5-.16-1.36.33-1.44-.54s.76-.7,1.3-.69S234.65,155.4,234.73,156.23Zm-1.42,4.16c-.6,0-1.4.16-1.4-.7,0-1.1,1-.61,1.53-.64s1.36-.36,1.35.59S233.86,160.27,233.31,160.39Zm.08-13.36c-.54-.18-1.52.36-1.48-.78,0-.89.83-.71,1.39-.68s1.53-.31,1.5.79C234.77,147.3,233.92,146.89,233.39,147Zm-1.46-3.68a.9.9,0,0,1,.13-.75,2.7,2.7,0,0,1,2.74.7C233.81,143.74,232.84,144.1,231.93,143.35ZM233.27,119c.6,0,1.52-.32,1.52.74s-.86.48-1.37.64c-.52-.21-1.51.42-1.51-.7C231.91,118.79,232.72,118.94,233.27,119ZM232,116.3c0-.91.86-.58,1.36-.58s1.37-.35,1.4.55-.87.5-1.24.68C232.83,116.86,232,117.14,232,116.3Zm1.37,9.39c.5,0,1.34-.38,1.44.51.11,1.08-.83.75-1.42.84-.61-.08-1.54.23-1.45-.83C232,125.32,232.84,125.69,233.35,125.69ZM232,123c0-.88.79-.67,1.33-.66s1.38-.25,1.42.59-.85.48-1.34.64C232.9,123.39,232,123.87,232,123Zm1.41,5.91c.55,0,1.36-.24,1.39.67.05,1.16-.93.61-1.47.79-.54-.13-1.39.27-1.42-.66S232.79,128.9,233.4,128.89Zm1.34,4.1c0,.87-.9.47-1.3.63-.65-.08-1.49.18-1.46-.69s.9-.52,1.41-.53S234.77,132.07,234.74,133Zm-1.47-19.32c-.55-.11-1.41.23-1.37-.72s.95-.72,1.56-.74,1.37-.18,1.34.73C234.77,114.05,233.81,113.5,233.27,113.67ZM238.9,123c-.89.55-1.78.57-3.22,0C237.11,122.42,238,122.42,238.9,123Zm0,9.82a2.84,2.84,0,0,1-2.86.3C237,132,238,132.62,238.89,132.82Zm.26,3.4c-1,.25-2,.64-3.07-.49C237.28,135.6,238.27,135.36,239.15,136.22Zm-1.65,24.13c-.53,0-1.32.25-1.29-.68,0-1.14,1-.43,1.49-.67.51.18,1.39-.33,1.43.55C239.19,160.76,238.14,160.31,237.5,160.35Zm-1.22-4.06c0-.95.87-.58,1.37-.59s1.38-.3,1.38.59-.88.44-1.38.59C237.17,156.72,236.29,157.26,236.28,156.29Zm1.35-2.65c-.48,0-1.31.45-1.41-.49-.12-1.1.79-.75,1.38-.83.59.09,1.53-.28,1.54.7S238.17,153.63,237.63,153.64Zm-1.39-4c.87-.63,1.76-.6,3.24-.13A3.24,3.24,0,0,1,236.24,149.64Zm9.24,13c-3.92-.06-3.93,0-3.93-3.82V153.2c0-2.69,0-5.39,0-8.08,0-1.08.14-1.54,1.44-1.47,4.29.23,4.3.17,4.3,4.48s-.05,8.38,0,12.57C247.32,162.07,247.07,162.66,245.48,162.63Zm17.17-75.71c-.42,0-1.16.33-1.21-.48-.07-1.13.87-.67,1.34-.82.61.09,1.45-.24,1.4.7S263.19,86.87,262.65,86.92Zm1.54,2.69c0,.93-.86.47-1.35.61-.5-.14-1.35.33-1.4-.57-.05-1.05.88-.72,1.46-.74S264.23,88.68,264.19,89.61Zm-1.39,2.7c.47.19,1.3-.39,1.39.57s-.7.79-1.24.75-1.51.38-1.51-.71S262.32,92.49,262.8,92.31Zm.07,3.26c.54,0,1.32-.26,1.33.69s-.82.57-1.33.7c-.49-.16-1.34.36-1.42-.58C261.34,95.26,262.27,95.58,262.87,95.57Zm0-16.68c.53,0,1.31-.28,1.35.67s-.78.6-1.3.73c-.52-.19-1.52.41-1.45-.78C261.5,78.59,262.31,78.9,262.84,78.89Zm0,3.41c.48.15,1.3-.35,1.39.57s-.7.77-1.24.74-1.51.34-1.51-.69S262.29,82.42,262.8,82.3Zm-1.34,17.19c.2-.95,1.09-.39,1.66-.48s1.17-.16,1.08.64c-.12,1-1,.52-1.54.66C262.06,100.27,261.27,100.38,261.46,99.49Zm2.71,3.62c-.09.92-.93.34-1.42.54-.47-.17-1.33.35-1.32-.65s.8-.69,1.33-.67S264.28,102,264.17,103.11ZM262.65,109c.59.23,1.43-.35,1.52.57.11,1.12-.83.77-1.41.79s-1.31.24-1.33-.68S262.33,109.27,262.65,109Zm.1,11.37c-.47-.16-1.33.36-1.32-.64s.8-.69,1.33-.67,1.52-.34,1.41.78C264.08,120.71,263.24,120.13,262.75,120.32Zm1.44,2.68c0,.78-.73.59-1.17.54s-1.48.44-1.58-.57.74-.67,1.31-.73C263.28,122.37,264.2,121.9,264.19,123Zm-1.4,5.93c.53,0,1.33-.33,1.39.61.09,1.26-1,.48-1.33.8-.63-.14-1.47.26-1.42-.75S262.26,128.91,262.79,128.93Zm0,3.4c.48.16,1.3-.35,1.39.57s-.7.77-1.24.74-1.51.34-1.51-.69S262.29,132.46,262.8,132.33Zm0,3.36c.52,0,1.3-.31,1.36.62s-.81.52-1.28.69c-.51-.2-1.5.43-1.46-.71C261.48,135.39,262.31,135.69,262.83,135.69Zm1.36,10.68c-.08,1-.9.47-1.38.62-.51-.14-1.36.32-1.37-.65,0-1.12.92-.7,1.5-.74S264.27,145.4,264.19,146.37ZM262.92,127c-.61-.13-1.44.25-1.47-.65,0-1.14.93-.64,1.46-.66s1.33-.41,1.28.63S263.32,126.85,262.92,127ZM263,117c-.59,0-1.5.33-1.56-.66s.85-.48,1.25-.69c.56.2,1.37-.33,1.5.57S263.55,117,263,117Zm-.31-3.37c-.51.05-1.34.29-1.24-.73s.87-.55,1.39-.65c.53.1,1.35-.27,1.36.69C264.2,114.08,263.24,113.55,262.68,113.6Zm-5.94-34.74c.6,0,1.52-.32,1.53.76s-.84.58-1.37.7c-.55-.17-1.52.36-1.53-.75C255.37,78.69,256.17,78.82,256.74,78.86Zm.1,13.48c.5,0,1.35-.38,1.42.52.09,1.09-.85.73-1.43.82-.63-.07-1.55.22-1.44-.84C255.48,92,256.33,92.33,256.84,92.34Zm-1.38-2.73c0-.87.81-.66,1.35-.65s1.38-.23,1.4.61-.86.47-1.36.62C256.35,90,255.48,90.52,255.46,89.61ZM256.84,87c-.5-.17-1.35.34-1.45-.54-.11-1.07.81-.84,1.42-.83s1.53-.28,1.45.8C258.19,87.34,257.33,86.82,256.84,87Zm-1.38-4.07c0-.91.88-.55,1.39-.55s1.38-.33,1.36.58-.86.54-1.39.63C256.28,83.51,255.44,83.78,255.46,82.92Zm-2.81-4c.7,0,1.36,0,1.23.85s-.91.52-1.41.54-1.35.26-1.28-.69S252.16,79,252.65,78.87Zm0,6.77c.57,0,1.34-.18,1.26.77s-1,.24-1.31.61c-.59-.21-1.49.28-1.38-.77C251.3,85.36,252.09,85.66,252.63,85.64ZM251.2,83c-.11-1,.77-.6,1.27-.73.5.14,1.33-.34,1.41.58s-.69.77-1.25.76S251.29,83.84,251.2,83Zm1.56,5.87c.51,0,1.18,0,1.14.67-.07,1.08-1,.49-1.53.67-.5-.08-1.24.13-1.18-.64C251.26,88.59,252.16,89,252.76,88.89ZM253.89,93c0,.93-.82.62-1.36.69s-1.36.19-1.34-.72.88-.59,1.37-.59S253.92,92,253.89,93Zm-1.31,12.6c.55,0,1.34-.2,1.31.71s-.9.42-1.27.65c-.61-.14-1.47.23-1.43-.7S252,105.57,252.58,105.57Zm-.13-3.25c.53,0,1.31-.33,1.43.59.14,1.1-.8.53-1.15.77-.59-.2-1.42.32-1.53-.58S251.89,102.29,252.45,102.32ZM251.2,99.7c-.11-1,.76-.71,1.27-.7s1.32-.37,1.41.54-.68.74-1.27.78S251.29,100.53,251.2,99.7ZM252.68,119c.57,0,1.24-.1,1.21.66,0,1.12-1,.59-1.53.65s-1.2.26-1.17-.57C251.23,118.63,252.16,119.11,252.68,119Zm-1.48-2.61c-.11-1,.77-.6,1.27-.73.5.15,1.33-.33,1.41.58s-.69.78-1.25.76S251.29,117.2,251.2,116.37Zm2.69-6.69c-.06.95-.88.52-1.3.67-.64-.08-1.46.17-1.4-.77s.91-.55,1.41-.55S254,108.62,253.89,109.68Zm-2.48,50.57a.87.87,0,0,1-.23-.78c.68-.88,1.6-.32,2.48-.17C252.89,159.65,252.41,160.65,251.41,160.25Zm1-3.3c-.5-.13-1.33.25-1.27-.73,0-.71.68-.64,1.18-.64s1.34-.16,1.39.66S253,156.83,252.45,157Zm.07-3.26c-.48-.15-1.33.32-1.34-.65s.78-.7,1.33-.71,1.31-.12,1.24.8S253,153.57,252.52,153.69Zm-.1-3.34c-.56,0-1.31.11-1.24-.79s.75-.55,1.21-.54,1.23-.26,1.4.6C253.65,150.49,253,150.35,252.42,150.35Zm.12-3.33c-.57-.14-1.42.23-1.35-.76s.84-.67,1.39-.67,1.35-.26,1.29.73S253,146.87,252.54,147Zm0-10c-.6-.2-1.5.28-1.38-.77.1-.89.9-.58,1.44-.61s1.33-.17,1.25.77S252.89,136.68,252.58,137.05Zm-1.38-4c-.11-1,.76-.71,1.27-.69s1.32-.37,1.41.54-.68.74-1.27.77S251.29,133.88,251.2,133.05Zm1.47-2.75c-.57,0-1.48.34-1.47-.72,0-.88.81-.62,1.34-.69.53.08,1.28-.24,1.35.67S253.19,130.33,252.67,130.3Zm-1.48-4c.07-.94.91-.55,1.41-.56s1.36-.4,1.29.66-.88.52-1.3.67C252,127,251.13,127.19,251.19,126.26Zm1.43-2.65c-.61-.15-1.47.22-1.43-.71s.83-.65,1.39-.65,1.34-.2,1.31.71S253,123.38,252.62,123.61Zm-.05-10c-.5-.13-1.32.28-1.37-.63-.06-1.07.84-.76,1.44-.79s1.29-.18,1.26.74S253.08,113.53,252.57,113.65ZM252.66,97c-.59-.16-1.41.25-1.46-.65-.06-1.08.84-.77,1.44-.8s1.28-.18,1.26.75S253.05,96.79,252.66,97Zm4.08,5.3c.59,0,1.51-.33,1.53.72s-.86.5-1.36.65c-.53-.2-1.51.42-1.53-.69C255.37,102.13,256.17,102.26,256.74,102.3Zm-1.29-2.68c0-.91.86-.58,1.36-.57s1.37-.35,1.4.54-.87.5-1.24.68C256.31,100.19,255.47,100.47,255.45,99.62Zm1.48,14.08c-.63-.17-1.48.26-1.55-.65-.08-1.08.83-.84,1.45-.84s1.53-.25,1.44.85S257.29,113.42,256.93,113.7Zm1.28,2.58c0,.87-.84.62-1.37.63s-1.38.23-1.39-.62.87-.47,1.38-.61C257.32,115.84,258.2,115.37,258.21,116.28Zm0-10c0,.92-.86.47-1.36.62-.5-.16-1.37.32-1.39-.58s.81-.66,1.35-.65S258.19,105.4,258.21,106.25Zm-1.55,2.68c.65.21,1.61-.33,1.6.75,0,.89-.83.67-1.37.66s-1.52.29-1.51-.76S256.32,109.23,256.66,108.93Zm.28,10c.55,0,1.36-.18,1.33.7,0,1.11-1,.46-1.54.68-.51-.15-1.39.29-1.35-.66S256.33,119,256.94,119Zm-.14,6.72c.55,0,1.51-.41,1.45.71,0,.89-.87.54-1.4.64-.61-.08-1.53.24-1.47-.82C255.44,125.31,256.3,125.68,256.8,125.69Zm-1.34-2.79c0-.84.88-.59,1.42-.58s1.38-.23,1.32.67-.92.39-1.41.56C256.29,123.4,255.4,123.85,255.46,122.9ZM256.84,137c-.5-.17-1.35.34-1.45-.54-.11-1.07.81-.84,1.42-.83s1.53-.28,1.45.8C258.19,137.37,257.33,136.85,256.84,137Zm-1.37-4.17c.13-.82,1-.44,1.48-.45s1.39-.33,1.24.67c-.12.81-.95.43-1.46.54C256.17,133.54,255.33,133.77,255.47,132.85Zm1.42-2.54c-.58,0-1.54.4-1.51-.74,0-.9.84-.63,1.36-.71.62.12,1.56-.29,1.53.82C258.25,130.62,257.4,130.33,256.89,130.31ZM256.73,97c-.53,0-1.38.26-1.36-.67s.94-.69,1.55-.77,1.37-.18,1.35.73C258.25,97.36,257.31,96.92,256.73,97Zm7.21,43.17a2.34,2.34,0,0,1-2.8-.24A2.63,2.63,0,0,1,263.94,140.13ZM262.68,149c.56.19,1.37-.33,1.5.56s-.63.81-1.19.78-1.5.33-1.56-.66S262.28,149.19,262.68,149Zm.27,11.36c-.58-.05-1.51.38-1.51-.71s.93-.31,1.25-.66c.58.24,1.41-.34,1.5.62S263.49,160.38,263,160.34Zm-1.52-4c0-1,1-.64,1.54-.68s1.32-.16,1.22.76-1,.28-1.3.58C262.27,156.81,261.4,157.21,261.43,156.3Zm1.51-2.58c-.58-.23-1.45.34-1.5-.61-.05-1.1.89-.72,1.47-.75s1.32-.25,1.28.71S263.25,153.36,262.94,153.72Zm0-46.79c-.58-.19-1.42.31-1.51-.56-.1-1.07.83-.77,1.41-.78s1.32-.24,1.34.65S263.34,106.7,263,106.93Zm4.16,53.46c-.54-.12-1.47.32-1.5-.73s.84-.64,1.33-.62,1.52-.45,1.56.63C268.54,160.52,267.74,160.36,267.12,160.39ZM267,135.65c.61,0,1.53-.28,1.5.77s-.91.44-1.4.6c-.54-.17-1.51.37-1.48-.73C265.65,135.4,266.48,135.65,267,135.65ZM265.69,133c-.09-1,.81-.63,1.3-.63s1.35-.36,1.43.5-.76.64-1.31.71C266.6,133.51,265.76,133.86,265.69,133ZM267,149.08c.5,0,1.37-.36,1.4.53s-.81.61-1.35.68c-.53-.09-1.37.22-1.4-.62S266.52,149.08,267,149.08Zm-1.32-2.81c.05-.72.79-.55,1.23-.46s1.41-.19,1.43.59-.89.41-1.38.57C266.5,146.84,265.64,147.23,265.71,146.27Zm1.34,6c.61.08,1.54-.24,1.45.83-.07.89-.93.52-1.43.52s-1.35.38-1.44-.51C265.52,152.06,266.45,152.39,267.05,152.31Zm1.38,4c0,1-.93.33-1.29.62-.6-.18-1.48.27-1.46-.65s.85-.6,1.39-.61S268.44,155.45,268.43,156.31Zm-1.44-26c-.53-.12-1.38.26-1.37-.7s.92-.73,1.52-.76,1.37-.18,1.37.71C268.52,130.71,267.54,130.18,267,130.35Zm.13-44.73c.55,0,1.37-.21,1.38.66,0,1.08-.95.54-1.5.71-.49-.16-1.36.33-1.38-.62S266.53,85.65,267.12,85.62ZM265.68,83c-.05-.94.84-.6,1.33-.6s1.37-.36,1.42.52-.79.62-1.34.69C266.57,83.48,265.73,83.82,265.68,83Zm1.55,37.41c-.65-.21-1.61.33-1.6-.75,0-.89.83-.66,1.37-.65s1.52-.29,1.51.75S267.57,120.08,267.23,120.38Zm1.19,2.63c-.07.87-.93.38-1.44.54-.48-.16-1.38.3-1.3-.67s.91-.55,1.45-.56S268.51,122.11,268.42,123ZM267,102.27c.73.08,1.65-.21,1.53.86-.09.87-.94.49-1.45.49s-1.34.38-1.41-.53C265.54,102,266.51,102.42,267,102.27Zm0-3.22c.51,0,1.35-.38,1.46.47s-.76.62-1.2.76c-.59-.14-1.42.24-1.53-.58C265.57,98.7,266.48,99.05,267,99.05Zm.31,7.86c-.62-.21-1.46.29-1.58-.55s.74-.72,1.26-.72,1.35-.29,1.47.53C268.57,107.25,267.56,106.58,267.27,106.91Zm-.34,2c.62.21,1.48-.3,1.57.58.11,1.06-.81.84-1.43.83s-1.52.28-1.45-.8S266.6,109.27,266.93,108.93Zm.09,3.26c.61.09,1.53-.25,1.49.83s-.89.62-1.41.61-1.52.35-1.48-.76C265.66,112,266.48,112.28,267,112.19Zm.12,4.74c-.51-.11-1.34.27-1.45-.55-.12-1,.79-.65,1.27-.65s1.35-.38,1.46.47S267.69,116.86,267.14,116.93Zm0-20c-.58,0-1.52.34-1.48-.76,0-.92.86-.6,1.4-.68.61.08,1.53-.26,1.49.82C268.47,97.27,267.62,97,267.1,97Zm-.05-3.3c-.6,0-1.53.27-1.42-.82.09-.9.94-.37,1.44-.55.5.17,1.36-.33,1.43.57C268.58,93.92,267.66,93.66,267.05,93.66Zm-1.37-4.06c0-.87.83-.63,1.37-.64s1.38-.22,1.39.62-.91.38-1.28.64C266.57,90,265.69,90.51,265.68,89.6Zm1.3,36.09c.55,0,1.52-.46,1.53.65,0,.86-.81.65-1.41.69-.54-.11-1.48.31-1.48-.75S266.49,125.66,267,125.69Zm0-45.37c-.53-.12-1.38.25-1.37-.71s.94-.72,1.54-.75,1.37-.17,1.36.71C268.51,80.68,267.54,80.15,267,80.32ZM285.9,99.61a3.53,3.53,0,0,1,3.39-.11A3.65,3.65,0,0,1,285.9,99.61ZM289,103c0,1.11-1,.61-1.54.64s-1.37.35-1.35-.59.94-.67,1.54-.75S289,102.09,289,103Zm-1.3-9.28c-.7-.11-1.62.24-1.58-.81s.9-.57,1.4-.56,1.5-.41,1.47.7C288.93,93.94,288.07,93.54,287.66,93.7Zm1.28,2.49c.05,1.09-.88.74-1.45.75s-1.34.32-1.39-.59.85-.74,1.45-.82C288.08,95.62,288.89,95.29,288.94,96.19Zm-3-6.61c1-.32,2.06-.78,3.3.28C287.89,90.14,286.87,90.28,285.9,89.58ZM287.43,87c-.52-.15-1.4.29-1.36-.67s.95-.69,1.56-.71,1.37-.19,1.33.7C288.92,87.42,288,86.78,287.43,87Zm.08-8.12c.6,0,1.51-.28,1.43.81-.06.91-.9.46-1.41.61-.53-.17-1.51.36-1.43-.8C286.17,78.62,287,78.87,287.51,78.88Zm1.41,3.85a2.45,2.45,0,0,1-3,.15A3.44,3.44,0,0,1,288.92,82.73Zm-5.72,6.16c.55.06,1.38-.19,1.37.66,0,1.07-1,.6-1.52.64s-1.33.3-1.23-.69S282.7,89,283.2,88.89Zm-1.38-2.5c-.08-1,.71-.77,1.25-.74s1.51-.37,1.49.72-.88.42-1.36.6C282.73,86.78,281.9,87.36,281.82,86.39Zm1.44-2.74c-.6-.11-1.39.23-1.45-.66s.79-.68,1.27-.65,1.52-.45,1.49.66C284.54,83.87,283.7,83.51,283.26,83.65Zm-.14-4.76c.6,0,1.53-.32,1.44.8-.07,1-.92.43-1.41.6-.51-.14-1.34.31-1.34-.69S282.59,78.88,283.12,78.89Zm-5.73,0c.56,0,1.31-.2,1.25.77s-.95.36-1.28.66c-.62-.17-1.47.28-1.48-.69S276.81,78.93,277.39,78.89Zm-.12,21.42c-.53-.08-1.36.22-1.39-.63,0-1.11.94-.63,1.48-.67s1.34-.33,1.28.66S277.79,100.22,277.27,100.31Zm1.36,2.74c-.05,1-.89.41-1.36.6-.48-.19-1.35.37-1.38-.58s.9-.71,1.47-.74S278.69,102.09,278.63,103.05Zm-1.42-14.18c.63.1,1.47-.2,1.42.71-.05,1.06-1,.55-1.54.61s-1.16.26-1.21-.51C275.82,88.58,276.77,89.05,277.21,88.87Zm-1.31-2.62c0-.9.86-.59,1.38-.6s1.31-.29,1.35.64-.82.5-1.28.68C276.83,86.76,275.84,87.4,275.9,86.25ZM278.63,93c-.08.93-.87.52-1.37.63-.54-.09-1.37.25-1.37-.66,0-1.1,1-.59,1.5-.63S278.72,92,278.63,93Zm-1.35,2.53c.52.09,1.34-.27,1.35.68,0,1.17-.95.64-1.5.69s-1.34.29-1.25-.72S276.75,95.64,277.28,95.55ZM277.06,109c.54.07,1.47-.52,1.57.56s-.75.65-1.29.73c-.56-.12-1.48.33-1.46-.77C275.89,108.73,276.64,109,277.06,109Zm1.57,3.87c0,1.17-.95.64-1.5.69s-1.34.29-1.25-.73.87-.55,1.4-.65C277.8,112.32,278.62,112,278.63,112.91Zm-5.57-2.54c-.59-.07-1.36.21-1.45-.67s.77-.72,1.26-.7,1.52-.45,1.52.67C274.39,110.54,273.57,110.31,273.06,110.37Zm1.29,2.63c-.05,1-.89.5-1.39.64-.52-.11-1.36.25-1.3-.74s.84-.64,1.39-.66S274.39,112.1,274.35,113ZM273,96.93c-.52-.09-1.36.24-1.25-.73s.87-.58,1.41-.62,1.15-.06,1.15.67C274.31,97.22,273.49,96.82,273,96.93Zm1.26,2.79c-.08.71-.83.39-1.21.53-.56-.09-1.28.15-1.28-.64s.74-.58,1.2-.55S274.34,98.71,274.24,99.72ZM273,102.27c.56.06,1.37-.19,1.38.68,0,1.09-.93.66-1.49.68s-1.35.32-1.28-.68S272.45,102.33,273,102.27Zm1.25,3.94c.07.85-.69.54-1.14.64-.48-.16-1.37.34-1.35-.64,0-.74.76-.55,1.24-.55S274.19,105.46,274.25,106.21ZM273,93.69c-.62,0-1.41.1-1.33-.77.08-1,1-.54,1.59-.6s1.18-.24,1.19.56C274.41,93.94,273.52,93.61,273,93.69Zm-1.19-4c-.06-.93.79-.67,1.33-.68s1.18-.16,1.17.63-.83.32-1.12.58C272.57,90.07,271.81,90.41,271.76,89.67Zm0-10.16c.1-.86.88-.56,1.42-.6s1.15-.06,1.15.67c0,1-.82.56-1.33.68C272.45,80.16,271.62,80.49,271.73,79.51ZM274.25,83c0,.79-.74.53-1.21.61-.48-.08-1.22.18-1.27-.54-.07-1,.81-.6,1.31-.64S274.26,82.17,274.25,83ZM273,85.6c.63,0,1.53-.2,1.41.86-.1.87-.95.37-1.46.54-.5-.13-1.35.28-1.31-.7S272.41,85.6,273,85.6Zm-1.07,30.21h2.2c.79.27.61.86.16,1.12a2.47,2.47,0,0,1-2.52,0C271.29,116.67,271.12,116.08,271.9,115.81Zm1,4.54c-.49-.14-1.35.29-1.29-.71s.82-.69,1.38-.68,1.36-.22,1.39.65C274.41,120.71,273.45,120.19,272.9,120.35Zm1.34,2.51c.08,1-.89.39-1.17.68-.61-.08-1.33.16-1.31-.62s.73-.58,1.21-.58S274.18,122.14,274.24,122.86Zm-1.41,2.82c.56,0,1.51-.44,1.56.63,0,.85-.75.71-1.33.73s-1.49.23-1.45-.83C271.65,125.42,272.38,125.64,272.83,125.68Zm.11,4.61c-.47-.09-1.19.21-1.21-.57,0-1.07.86-.73,1.45-.78s1.15,0,1.12.7C274.25,130.58,273.44,130.17,272.94,130.29Zm1.3,2.76c-.05.71-.79.52-1.27.52s-1.2.2-1.21-.58.69-.54,1.19-.61C273.4,132.54,274.3,132.05,274.24,133.05Zm-1.15,2.59c.58,0,1.34-.12,1.31.75s-.88.49-1.38.64c-.5-.15-1.36.32-1.4-.6S272.48,135.66,273.09,135.64ZM273,152.31c.61,0,1.52-.23,1.44.83s-1,.29-1.33.6c-.62-.16-1.47.25-1.46-.71S272.37,152.29,273,152.31Zm-1.19-2.71c.1-.89.93-.46,1.45-.52s1-.13,1,.49c0,.94-.82.59-1.33.7C272.42,150.2,271.67,150.38,271.76,149.6Zm2.49,6.72c0,.81-.76.47-1.23.56-.45-.1-1.21.24-1.26-.5-.06-.93.79-.67,1.33-.68S274.28,155.54,274.25,156.32Zm-1.17,4.07c-.61,0-1.52.25-1.47-.81s1-.32,1.31-.62c.61.17,1.46-.27,1.48.68S273.66,160.41,273.08,160.39Zm-1.82-20.91c1.29-1,2.17-.79,3.47-.28C273.48,140.06,272.61,139.64,271.26,139.48Zm5.87-23.86c.56.2,1.37-.33,1.49.57s-.63.81-1.18.78-1.51.33-1.57-.66S276.72,115.83,277.13,115.62Zm1.51,4.07c0,1-.86.46-1.32.63-.5-.18-1.35.37-1.43-.54-.09-1.1.85-.76,1.43-.77S278.64,118.74,278.64,119.69Zm-1.22,2.57c.55,0,1.31-.15,1.21.77s-1,.27-1.3.57c-.62-.14-1.49.26-1.45-.66S276.84,122.3,277.42,122.26Zm-.36,3.45c.54.08,1.47-.51,1.57.57s-.75.65-1.29.73c-.56-.12-1.48.33-1.46-.78C275.89,125.41,276.64,125.66,277.06,125.71Zm.21,4.61c-.5-.15-1.35.33-1.39-.64,0-1.12.9-.73,1.49-.76s1.32-.22,1.27.75S277.76,130.17,277.27,130.32Zm.17-23.38c-.6-.23-1.59.38-1.56-.74,0-.85.85-.62,1.39-.61s1.3-.27,1.37.62S277.81,106.69,277.44,106.94Zm-.06-23.29c-.6-.11-1.42.23-1.49-.61-.08-1.13.89-.68,1.44-.7s1.32-.33,1.31.61S277.82,83.52,277.38,83.65ZM283.3,97c-.59-.18-1.41.32-1.49-.66s.7-.8,1.25-.76,1.52-.38,1.51.74S283.66,96.73,283.3,97Zm1.27,2.53c.06,1.1-.89.63-1.33.8-.64-.09-1.47.2-1.42-.7.05-1.06,1-.55,1.54-.61S284.52,98.75,284.57,99.52ZM283,109c.6.23,1.45-.34,1.53.57.11,1.1-.83.78-1.41.79s-1.31.27-1.33-.67S282.72,109.28,283,109Zm.12,3.3c.59,0,1.52-.31,1.42.81-.09.94-.93.41-1.42.58-.51-.13-1.34.3-1.33-.7S282.6,112.24,283.14,112.25Zm0,10c.58,0,1.51-.31,1.44.75-.07.89-.92.41-1.41.56-.49-.14-1.33.31-1.34-.64S282.59,122.25,283.12,122.27Zm-1.31-2.56c0-1,.76-.72,1.29-.7s1.51-.36,1.46.75-1,.24-1.28.61C282.7,120.14,281.86,120.7,281.81,119.71ZM283.3,127c-.62-.12-1.54.31-1.48-.81.05-.83.78-.54,1.2-.5s1.48-.46,1.54.6S283.77,126.91,283.3,127ZM283.07,117c-.54,0-1.32.2-1.26-.72s.94-.33,1.28-.62c.61.17,1.47-.27,1.48.64S283.65,116.93,283.07,117Zm.14-10.06c-.48-.16-1.3.35-1.39-.57s.69-.77,1.23-.74,1.51-.34,1.52.69S283.72,106.77,283.21,106.9Zm0-3.25c-.49-.19-1.33.38-1.42-.54-.1-1.12.84-.76,1.42-.78s1.32-.24,1.32.68S283.72,103.48,283.25,103.65ZM284.57,93c-.13,1-1,.51-1.52.65-.65,0-1.42.07-1.21-.82s1.1-.37,1.67-.46S284.69,92.12,284.57,93Zm4.34,23.18a3.15,3.15,0,0,1-3,.18C286.86,115.46,287.89,115.87,288.91,116.17Zm-2.82-3.24c0-.87.78-.73,1.34-.7s1.5-.32,1.52.74-.83.56-1.35.68C287.06,113.48,286.1,114,286.09,112.93Zm1.5,7.46c-.63-.2-1.5.28-1.51-.66s.9-.75,1.5-.75,1.35-.24,1.38.65C289,120.86,287.91,120,287.59,120.39Zm.1-10c-.68-.1-1.6.26-1.62-.76s.86-.63,1.36-.6,1.51-.46,1.53.65C289,110.56,288.14,110.26,287.69,110.37Zm-1.79-4.06a3.76,3.76,0,0,1,3.44,0A3.33,3.33,0,0,1,285.9,106.31ZM345,133.55c0,.53,0,1,0,1.58s-.17.7-.66.69-.72-.16-.74-.62,0-1,0-1.58v-63c0-.45,0-.9,0-1.35s.22-.81.8-.78.62.3.62.71,0,1,0,1.58v62.8Zm4.34-46.66v46.38c0,.53,0,1,0,1.58s-.18,1-.88,1-.72-.43-.71-.94,0-.9,0-1.35V70.76a1.35,1.35,0,0,1,0-.45c.19-.66-.58-1.88.84-1.83,1.22,0,.71,1.13.71,1.75C349.35,75.79,349.34,81.34,349.34,86.89Zm4.31-16.17v62.8c0,.53,0,1.06,0,1.58a.65.65,0,0,1-.66.72c-.61,0-.75-.31-.75-.82s0-1.05,0-1.57V69.49c0-.52-.07-1.08.76-1s.63.65.66,1.13S353.65,70.34,353.65,70.72Zm4.4,31.44c0,10.58,0,21.16,0,31.75,0,.68.57,1.94-.79,1.9s-.75-1.27-.75-2q0-31.74,0-63.49c0-.66-.62-1.92.81-1.86s.72,1.26.72,1.93C358.06,81,358.05,91.58,358.05,102.16ZM362.41,134c0,.7.51,1.93-.88,1.85-1.15-.07-.67-1.18-.67-1.82q0-16.09,0-32.2c0-10.5,0-21,0-31.51,0-.65-.63-1.91.85-1.81,1.2.07.68,1.16.68,1.78Q362.45,102.12,362.41,134Zm4.21-.44c0,.53,0,1.05,0,1.58a.66.66,0,0,1-.66.74.73.73,0,0,1-.9-.74c0-.52,0-1.05,0-1.57V70.73c0-.53,0-1.06,0-1.58s.4-.72.9-.71a.62.62,0,0,1,.66.71c0,.52,0,1,0,1.57v62.81Zm4.38-.16v1.35c0,.56,0,1.1-.75,1.13s-.85-.44-.83-1,0-.9,0-1.35V70.66c0-.45,0-.9,0-1.35s.12-.87.73-.87.84.2.84.77,0,1.05,0,1.58v62.58Zm3.59,2.38c-1.35.08-.75-1.22-.75-1.88q0-31.74,0-63.48c0-.23,0-.45,0-.68.05-.53-.26-1.31.77-1.24s.56.85.64,1.36a7,7,0,0,1,0,1.12V102c0,10.58,0,21.16,0,31.74C375.21,134.43,375.85,135.68,374.59,135.75Zm4.05-.26-.32,0V68.64h.32Zm37.26-3.63v-.32h43.92v.32Zm43.88,2.25H416v-.24h43.77Zm-3.89,24H416v-.25h39.88ZM416,155.77v-.26h39.9v.26Zm-.2-2.38v-.45h40.31v.45Zm40.1-2.77v.26H416v-.26ZM416,148.54l.09-.26h39.74v.26Zm-.06-12v-.34h43.94v.34Zm0-7.26L416,129h44v.31Zm110.63-17.1a15,15,0,0,0-2.42,0c-.82-1.87-.65-2.3,1.16-2.25.92,0,2.08-.65,2.8.56C528.37,111.69,528.15,112.46,526.63,112.2Zm0,5a15,15,0,0,0-2.42,0c-.82-1.87-.65-2.3,1.16-2.25.92,0,2.08-.65,2.8.55C528.37,116.64,528.15,117.42,526.63,117.16Zm-.71-71c.85.08,2.26-.74,2.31,1.11s-1.47.59-2,1.21c-.85-.5-2.22.6-2.33-1.13S525.08,46.05,525.92,46.12Zm.33,9.83c.74,0,1.92-.56,2,1,0,2-1.61.57-2.11,1.24-.84-.4-2.12.55-2.11-1.11C524,55.21,525.4,56,526.25,56ZM524,52.17c0-1.88,1.38-1.13,2.25-1.18s2.11-.48,2,1.22-1.54.5-2.2,1C525.28,52.83,524,53.83,524,52.17Zm2.09,20.74c-.88-.17-2.18.49-2.09-1.22s1.43-.88,2.18-.92,2.11-.74,2,1.07S526.77,72.59,526.07,72.91Zm2.12,3.78c0,1.75-1.27,1.12-2.07,1.11s-2.1.66-2.14-1,1.36-.76,2.09-1.16C526.75,76,528.15,74.88,528.19,76.69Zm0-14.56c-.16,1.77-1.54.5-2.2,1-.71-.37-2,.62-2-1,0-1.89,1.38-1.13,2.25-1.19S528.34,60.42,528.19,62.13Zm-2.07,3.74c.8,0,2.11-.63,2.07,1.11s-1.44.66-2.12,1.1c-.73-.4-2.15.67-2.09-1.16S525.32,65.88,526.12,65.87ZM526,85.46c.74.51,2.14-.7,2.22,1.11s-1.22,1.18-2,1.15-2.08.68-2.19-1C523.86,84.82,525.34,86,526,85.46Zm.21-2.62c-1-.16-2.3.45-2.2-1.25s1.45-.86,2.19-.9,2.11-.71,2,1.08S526.69,82.37,526.18,82.84ZM523.78,91c0-.15.29-.27.45-.4a14.76,14.76,0,0,0,2.4,0c1.54-.27,1.73.53,1.54,1.72-1.17,1.19-2.62.6-3.9.44C523.47,92.58,523.69,91.61,523.78,91Zm0,5c0-.15.29-.27.45-.4a14.76,14.76,0,0,0,2.4,0c1.54-.26,1.73.53,1.54,1.73-1.17,1.19-2.62.6-3.9.44C523.47,97.54,523.69,96.56,523.78,95.92Zm-3.21-49.76c.73-.07,1.92-.55,1.92,1,0,2-1.52.71-2.24,1.15-.71-.31-2,.6-1.94-1.06C518.32,45.34,519.75,46.23,520.57,46.16Zm1.92,6.06c-.16,1.83-1.57.45-2.18,1-.71-.4-2,.62-2-1.08,0-2,1.4-1.08,2.23-1.17S522.63,50.52,522.49,52.22Zm-2.37,89.67c-1.7.48-1.73-.5-1.85-1.9-.16-1.93.82-1.84,2.21-2,1.77-.13,2,.58,2.06,2.13C522.66,142.28,521.46,142,520.12,141.89Zm.26-76.17c-.76-.27-2.1.63-2.07-1.17s1.38-1,2.1-1,2.1-.81,2.08,1S521.14,65.44,520.38,65.72Zm2.12,3.76c0,1.94-1.47.86-2.18,1.17-.94-.09-2.14.44-2-1.26.15-1.94,1.56-.82,2.36-1S522.53,67.88,522.5,69.48Zm-2.1,3.78c.8.31,2.18-.62,2.09,1.18s-1.39,1-2.17,1-2.08.63-2-1.12S519.77,73.71,520.4,73.26Zm-2.09,6c.1-1.79,1.43-.85,2.17-.91s2.11-.71,2,1.07-1.43.73-2.14,1C519.52,80.25,518.21,81,518.31,79.25Zm2.07,3.93c.71.38,2.1-.7,2.11,1.09s-1.3,1.09-2.08,1.07-2.08.72-2.1-1S519.66,83.54,520.38,83.18Zm0,4.88c.8,0,2.09-.63,2.09,1.11,0,1.93-1.47.91-2.21,1.21-.94-.1-2.12.43-2-1.29S519.66,88.09,520.43,88.06Zm0,9.93c.78,0,2.1-.66,2.08,1.08s-1.4.71-2.11,1.08c-.72-.35-2.1.69-2.07-1.12S519.65,98,520.41,98ZM518.31,94c.06-1.74,1.36-1,2.13-1s2.11-.63,2,1.1-1.44.65-2.1,1.06C519.62,94.87,518.24,95.85,518.31,94Zm2.06,8.89c.79,0,2.09-.7,2.15,1,.06,1.93-1.38,1-2.19,1.29-.84-.18-2.09.52-2.05-1.24S519.58,102.92,520.37,102.93Zm.19,4.77c1-.11,2-.34,2,1.41,0,1.94-1.19,1.43-2.19,1.48s-2.13.26-2.08-1.58C518.32,107,519.66,107.79,520.56,107.7Zm-.25,22c-.8,0-2,.62-2-1.14,0-2.06,1.64-.51,2.12-1.19.86.33,2.05-.52,2.08,1.13C522.53,130.34,521.16,129.63,520.31,129.65Zm2.18,3.65c.08,1.88-1.35,1.14-2.2,1.18s-2.09.56-2-1.16,1.5-.54,2.16-1C521.16,132.68,522.42,131.68,522.49,133.3Zm-2.2-15.84c.83.44,2.23-.66,2.2,1.2s-1.33,1.07-2.11,1.07-2.07.69-2.08-1.09C518.3,116.71,519.79,118.07,520.29,117.46Zm-2-3.91c.17-1.76,1.49-.81,2.23-.86s1.91-.78,2,.91c0,2-1.47.86-2.07,1.24C519.4,114.72,518.16,115.28,518.31,113.55Zm4.18,10.07c0,1.76-1.33,1.06-2.11,1.07s-2.09.69-2.07-1.1,1.41-.7,2.08-1.12C521.12,122.86,522.53,121.76,522.49,123.62Zm-2.16-62.74c-2.32.14-2.07-1.16-2-2.64-.35-1.65.08-2.35,2.1-2.42,2.61-.11,1.86,1.5,2,2.85C522.73,60.44,522,60.77,520.33,60.88Zm3.45,40c0-.15.29-.26.45-.39a14.76,14.76,0,0,0,2.4,0c1.54-.26,1.73.53,1.54,1.73-1.17,1.19-2.62.59-3.9.43C523.47,102.5,523.69,101.52,523.78,100.87Zm0,5c0-.15.29-.26.45-.39a16,16,0,0,0,2.4,0c1.54-.26,1.73.53,1.54,1.73-1.17,1.18-2.62.59-3.9.43C523.47,107.45,523.69,106.48,523.78,105.83Zm1.59,14c.92,0,2.08-.66,2.8.55.2,1.21,0,2-1.54,1.73a15,15,0,0,0-2.42,0C523.39,120.22,523.56,119.78,525.37,119.84Zm.79,15c.82,0,2.1-.58,2,1.17-.07,1.91-1.59.37-2.05,1.15-.79-.53-2.07.56-2.17-1.07C523.87,134.2,525.28,134.83,526.16,134.82Zm0-5c.82.19,2.13-.52,2,1.23s-1.46.87-2.2.9-1.92.79-2-.84C523.88,129.22,525.31,130,526.17,129.81Zm0-2.55c-.9-.34-2.27.55-2.22-1.2s1.33-1.07,2.14-1,2.09-.67,2.16,1C528.31,128,526.7,126.71,526.14,127.26ZM526,141.91c-1.48.34-2.05-.13-2.08-1.81s.57-2.12,2.2-2.1,2.19.27,2.22,2.07C528.32,142,527.4,142.12,526,141.91Zm11.33-95.77c.8.06,2.09-.7,2.22,1,.14,1.83-1.31.84-2,1.24-.81-.38-2.18.64-2.18-1.16C535.37,45.63,536.52,46.08,537.28,46.14Zm2.22,6c-.07,1.79-1.44.66-2.08,1.07-.79-.3-2.14.62-2-1.19s1.34-1,2.12-1S539.57,50.42,539.5,52.13Zm-7.84-6c.78,0,2.09-.69,2.12,1s-1.43.65-2,1.17c-.79-.44-2.18.67-2.19-1.14S530.89,46.16,531.66,46.16Zm0,56.39c-.79-.24-2.12.58-2-1.19s1.41-.89,2.15-.94,2.1-.73,2,1S532.37,102.24,531.64,102.55Zm2.14,3.71c.08,1.9-1.39,1-2.17,1.24-.85-.17-2.14.5-2-1.23s1.45-.83,2.19-.88S533.71,104.66,533.78,106.26Zm-2.07,3.9c.79,0,2.1-.64,2.07,1.09s-1.43.68-2.1,1.08c-.75-.35-2.13.67-2.09-1.15S530.94,110.19,531.71,110.16Zm.14,5c.73-.06,1.92-.55,1.93,1,0,2-1.52.73-2.24,1.16-.7-.31-1.95.61-1.95-1C529.6,114.31,531,115.19,531.85,115.12Zm-.15,5c.78,0,2.1-.66,2.08,1.08s-1.41.7-2.12,1.08c-.72-.35-2.1.69-2.07-1.13S530.93,120.1,531.7,120.08Zm0-22.48c-.77-.28-2.11.61-2.07-1.17s1.39-.93,2.12-1,2.1-.75,2.07,1S532.4,97.29,531.66,97.6Zm0-39.44c-.78-.34-2.16.66-2.08-1.2s1.38-1,2.15-1,2.1-.62,2,1.14S532.31,57.71,531.67,58.16Zm2.1,3.93c-.11,1.82-1.51.55-2.18,1.06-.65-.46-1.93.66-2-1-.07-2,1.34-1.17,2.19-1.22S533.88,60.36,533.77,62.09Zm-2.11-8.85c-.88-.33-2.11.52-2.07-1.16,0-1.95,1.48-1,2.3-1.09s1.9-.52,1.89,1.07C533.76,54.14,532.11,52.51,531.66,53.24Zm.13,37.14c.75.31,2-.56,2,1.07,0,1.9-1.45,1-2.28,1.11s-1.91.57-1.91-1C529.59,89.56,531.12,90.86,531.79,90.38Zm-.12-7.53c-.77-.28-2.1.63-2.08-1.18s1.38-1,2.11-1,2.09-.81,2.08,1S532.43,82.56,531.67,82.85Zm2.11,3.87c-.09,1.77-1.43.75-2.14,1.08-.84-.2-2.14.55-2-1.23s1.44-.88,2.17-.93S533.87,84.89,533.78,86.72Zm-2-8.79c-.83-.34-2.17.62-2.18-1.18s1.35-1,2.07-1,2.09-.84,2.12,1S532.43,77.55,531.77,77.93Zm-2.18-6.14c0-1.86,1.36-.77,2.08-1.14.69.41,2.09-.75,2.11,1.1s-1.29,1.12-2.08,1.1S529.62,73.58,529.59,71.79Zm2.2-3.66c-.83-.44-2.22.66-2.2-1.2s1.33-1.05,2.1-1.07,2.08-.67,2.09,1.1C533.79,68.88,532.29,67.52,531.79,68.13ZM531.65,125c.78,0,2.09-.7,2.13,1s-1.35.79-2.11,1.14c-.66-.42-2,.73-2.08-1.09S530.88,125,531.65,125Zm0,7.07c-.65-.46-1.93.67-2-1-.08-1.93,1.34-1.17,2.19-1.21s2.1-.55,2,1.19S532.27,131.61,531.6,132.11Zm2.17,3.94c-.15,1.83-1.55.47-2.17,1-.71-.41-2,.63-2-1.08,0-2,1.39-1.09,2.23-1.17S533.91,134.35,533.77,136.05Zm-2.16,5.85c-1.71.43-2.07-.32-2.08-2s.62-1.91,2.09-1.91,2.23.18,2.24,2S533.13,142.19,531.61,141.9Zm3.4-37.85c0-.88.44-1,1-.89s1.22-.14,1.26.81-.52,1-1.24,1S535,104.89,535,104.05Zm1.27-4c-.71,0-.88-.35-.87-1s0-1.15.92-1.16,1,.39.95,1.1C537.4,99.85,537.05,100.11,536.28,100.1Zm.07,29.61c-1.08,0-.9-.7-1-1.35-.08-.86.4-.94,1.09-1,1,0,.82.62.82,1.22S537.2,129.71,536.35,129.71Zm.94,3.84c0,.63-.2.93-.89.95s-1-.37-1-1.09.16-1.2.94-1C537.37,132.29,537.28,133,537.29,133.55Zm-.84-8.8c-1,0-1-.47-1.07-1.21s.22-1,1-1,1,.36.93,1S537.35,124.72,536.45,124.75Zm-.14-17.11c1.27,0,.94.81,1,1.48s.26,1.54-1,1.48-.83-1-.87-1.6S535.2,107.68,536.31,107.64Zm1,11.16c.05.71-.2,1.16-.88,1-1.22,0-1-.77-1-1.37-.08-.94.58-.81,1.16-.82C537.54,117.55,537.26,118.27,537.29,118.8Zm0-5.1c-.06.6,0,1.24-.86,1.1-.85.14-1.08-.3-1.05-1s-.16-1.18.8-1.2S537.4,112.82,537.31,113.7Zm-.07,26.52c.07.62.6,1.77-.91,1.71s-.57-1.34-1-1.94c.29-.68-.52-1.85.91-1.87C538,138.09,537.16,139.48,537.24,140.22ZM536,95.12c-.83-.15-.59-.81-.52-1.23.28-1.58,1.39-.69,2.39-.82C537.36,94.12,537.56,95.41,536,95.12Zm1.48-4.79c-.7-.28-2,.67-2-1.13,0-1.6,1.1-1.16,1.85-1.09s2.09-.7,2.23,1S538.32,90.18,537.43,90.33Zm-.2-5c-.77.07-1.89.45-1.86-1.11,0-1.88,1.51-.53,2-1.16.82.41,2.09-.51,2.12,1.1C539.54,86.09,538.09,85.29,537.23,85.37Zm0-5c-.8.09-1.91.39-1.83-1.14.09-1.8,1.48-.63,2.15-1.07.71.34,2-.55,2,1.08C539.48,81.15,538.06,80.32,537.2,80.41Zm-1.83-6c0-1.78,1.34-1,2.1-1s2.14-.67,2,1.1-1.45.73-2.17,1.06C536.53,75.34,535.36,76,535.37,74.39Zm2-3.77c-.83,0-2,.55-2-1.18s1.39-.77,2.08-1.11c.81.24,2.12-.56,2.06,1.21S538.18,70.58,537.38,70.62Zm-2-6.19c.14-1.75,1.45-.82,2.18-.88s1.89-.7,1.94.91c.06,1.9-1.37,1-2.12,1.24C536.44,65.63,535.25,66.1,535.38,64.43Zm2.07-3.54c-2.25.07-2-1.07-2.08-2.55s0-2.51,2.15-2.54c2.45,0,2,1.36,1.94,2.86C539.79,60.16,539.38,60.83,537.45,60.89ZM634.71,151c.45.11,1.22-.41,1.31.36s-.68.44-1.11.49-1.17.4-1.22-.41C633.65,150.84,634.29,150.94,634.71,151Zm.61,4.34c-.85-.06-1.57.36-1.63-.45-.06-.66.62-.54,1-.42s1.38-.58,1.35.51C636,155.6,635.36,155.38,635.32,155.37Zm-.51-1.27c-.93.24-1.27-.12-1.24-1,0-1.11.76-.72,1.4-.82.94-.15,1.17.16,1.17,1C636.15,154.44,635.39,154.12,634.81,154.1Zm14-78.73c0-.59-.17-1.23.74-1.15.64,0,1.09.09.94.82-.11.49.24,1.27-.79,1.2C649.1,76.19,648.73,76.12,648.79,75.37Zm.65,16.42c.65,0,1.1,0,1,.8-.05.56.16,1.24-.77,1.22-.53,0-1,0-.91-.81C648.89,92.49,648.51,91.74,649.44,91.79Zm.27,15.31c.7,0,.83.35.76,1s0,1.13-.92,1.06c-.75-.06-.83-.43-.74-1C648.6,107.37,649,107.09,649.71,107.1Zm-.17,10.14c.82,0,1.08.33,1,1.09.1.67,0,1.14-.89,1.11-.67,0-.92-.26-.85-.93S648.57,117.28,649.54,117.24Zm0,17.5c-1,.1-.74-.63-.79-1.19s.15-1,.83-1c.86,0,.92.44.92,1.13S650.41,134.89,649.56,134.74Zm1-11.27c0,.61.08,1.24-.94,1.22-.72,0-.9-.38-.82-1.11.05-.51-.15-1.06.69-1.08S650.59,122.61,650.53,123.47ZM649.7,83c-.88.06-1-.39-.94-1.08,0-.54-.2-1.24.79-1.25.81,0,1,.4,1,1.11S650.58,82.93,649.7,83Zm5.5-23.87c1.31,0,.69,1.34.94,2-.23.74.43,1.85-1,1.83s-.84-1.1-.9-1.77C654.14,60.35,654,59.11,655.2,59.12Zm0,75.65c-.71,0-.94-.26-.8-.92.09-.49-.37-1.25.69-1.24.73,0,1.13.21.93,1C656.1,134.23,656.15,134.78,655.23,134.77Zm-.17-10.12c-1,0-.53-.83-.64-1.31-.17-.73.24-.91.9-.82,1-.1.65.67.75,1.18C656.25,124.6,655.66,124.65,655.06,124.65Zm.14-44c1-.06.76.66.82,1.2s.14,1.08-.72,1.08-.92-.55-.89-1.19S654.45,80.73,655.2,80.69Zm-.75-5.2c0-.58,0-1,.73-1.08.85,0,.83.55.89,1.17s-.3.87-.72.83C654.43,76.49,654.41,76.12,654.45,75.49Zm.74,11.17c.8,0,1.07.31.81,1,.22.84,0,1.17-.84,1.15s-.88-.31-.7-1C654.6,87.35,654.07,86.58,655.19,86.66Zm-.12,22.51c-.9,0-.53-.63-.59-1.08s-.21-1.07.64-1c.68,0,1.14.26.91,1.07C656.23,109,655.73,109.14,655.07,109.17Zm.22-17.46c1.08,0,.68.68.75,1.2s.05.92-.75,1c-1,.06-1-.38-.75-1C654.37,92.15,654.27,91.68,655.29,91.71Zm-.81,11.09c-.16-.7.13-1,.85-.79,1-.13.6.65.7,1.15.19.91-.35,1-1,1C653.94,104.07,654.59,103.27,654.48,102.8Zm1.58,15.42c0,.58.2,1.23-.78,1.21-.64,0-1-.13-.86-.85.12-.48-.39-1.29.65-1.29C655.7,117.29,656.29,117.35,656.06,118.22Zm-2.24,24.38c.12-.93.39-1.91,1.54-1.73s1.28,1.11,1.12,2.08c-.06.36-.31.69-.31,1,0,.83,1.53,1.91-.82,2.16s-1.29-1.35-1.63-2.13C653.75,143.49,653.76,143,653.82,142.6Zm-1.49-79.15A.93.93,0,0,1,652,62.4c.1-.84-.38-1.8.48-2.47a.4.4,0,0,1,.66.28C653.06,61.33,653.8,62.68,652.33,63.45Zm1.43,98.27c-.89-2.59-.41-5.22-.19-7.84,0-.61.65-1.23,1.25-1,.89.34-.05,1.18.21,1.76,1.22-.17-.12-1.4.77-1.74a1.45,1.45,0,0,1,1.06,1.63c0,1.42.12,2.84.13,4.26C657,162,657,162,653.76,161.72Zm4.38-98.19c-1.28-1.18-.63-2.43-.46-3.6C658.61,61,658.37,62.15,658.14,63.53ZM660.73,103c-.2.34.2.94-.56,1.09a2.22,2.22,0,0,1,.09-2,1,1,0,0,1,1,0c.55.62,0,1.33.28,2C660.56,104,661,103.33,660.73,103Zm-.1-20c-.81,0-.63-.65-.64-1.13s0-1.2.87-1.14.77.7.82,1.43S661.35,83,660.63,83ZM670,151.05c.41-.08,1-.26,1.11.33.1,1-.73.36-1,.56-.55-.18-1.35.39-1.35-.46S669.55,151.13,670,151.05Zm0,4.3c-.49-.06-1.29.37-1.21-.5s.84-.26,1.28-.35,1.05-.25,1.06.36C671.12,155.7,670.39,155.34,670,155.35Zm0-1.25c-.59,0-1.33.33-1.33-.81,0-.88.25-1.16,1.19-1,.64.09,1.36-.28,1.39.83C671.25,154,670.89,154.34,670,154.1Zm5.24-10.82c-.56.18-.84-.09-.78-.68.1-.93.76-.36,1.18-.41.53-.26.9-.12.91.49C676.55,143.79,675.67,143.13,675.21,143.28Zm7.1,12.09a2.68,2.68,0,0,1-1.95,0c-.86-.36,0-1,0-1.52,0-.22,0-.45,0-.67a1.71,1.71,0,0,0-.21-1.28c-.26-.34-.19-.83.21-.9a5.22,5.22,0,0,1,2,0c.43.09.41.59.18.92a2.91,2.91,0,0,0-.26,1.94C682.28,154.39,683.17,155,682.31,155.37Zm8.46,3.84c0,.68.11,1.31-1,1.3s-1.24-.42-1.24-1.34c0-6.37,0-12.74,0-19.11a2,2,0,0,1,.29-1.27c1.62-1.88,1.16-4,.49-5.95a10.43,10.43,0,0,1-.31-4.4c1.26,0,1.73.52,1.73,1.77C690.75,139.88,690.77,149.54,690.77,159.21Zm161.65-37.36c1-.78,2.07-.8,3.53-.16C854.54,122.51,853.46,122.07,852.42,121.85Zm3.47,2.77a3.09,3.09,0,0,1-3.49.16A4.6,4.6,0,0,1,855.89,124.62Zm-3.48-6c1-.71,2.08-.7,3.56-.08A3.62,3.62,0,0,1,852.41,118.61Zm0-3c.06-1,1.06-.57,1.65-.57s1.62-.34,1.5.67-1.13.35-1.72.51C853.26,116.06,852.32,116.4,852.38,115.56Zm0-2.87c1-.85,2.06-.59,3.73-.47C854.56,113.44,853.47,112.83,852.42,112.69Zm1.45-52c-.54-.12-1.47.27-1.48-.56,0-1.05,1-.61,1.58-.62s1.64-.38,1.58.61S854.46,60.58,853.87,60.73Zm1.64,2.35c-1,.86-2,.55-3.09.17A3.06,3.06,0,0,1,855.51,63.08ZM852.4,91a2.74,2.74,0,0,1,3.13-.16A3.09,3.09,0,0,1,852.4,91Zm3.43,2.85a2.75,2.75,0,0,1-3.42.17A4.19,4.19,0,0,1,855.83,93.87ZM852.41,97c.17-.9,1.14-.34,1.7-.51.58.08,1.56-.17,1.46.6-.13,1-1.21.54-1.89.58C853.18,97.68,852.23,97.93,852.41,97Zm1.27-17.81c-.5,0-1.45.28-1.27-.67s1.14-.34,1.7-.51c.58.08,1.56-.17,1.46.6C855.44,79.61,854.36,79.13,853.68,79.17Zm1.84,2.43a3.21,3.21,0,0,1-3.12.1A2.58,2.58,0,0,1,855.52,81.6Zm.15,3c-1.41.9-1.57.91-3.51.14A4.16,4.16,0,0,1,855.67,84.55Zm-3.26-8.93a3.59,3.59,0,0,1,3.51-.14A3.21,3.21,0,0,1,852.41,75.62Zm0-3.14a4.6,4.6,0,0,1,3.43-.19C854.54,73.33,853.47,72.84,852.41,72.48Zm0-3.17a4.65,4.65,0,0,1,3.54-.08A3.27,3.27,0,0,1,852.4,69.31Zm-.34-12.09c1.31-1,2.42-.38,3.46-.26C854.51,57.8,853.46,57.73,852.06,57.22Zm3.47,46.08a4.23,4.23,0,0,1-3.45.09A2.83,2.83,0,0,1,855.53,103.3Zm-3.12-3.19a3.42,3.42,0,0,1,3.63,0A3.88,3.88,0,0,1,852.41,100.11Zm0-12.26a4.18,4.18,0,0,1,3.76,0A4.21,4.21,0,0,1,852.4,87.85ZM856,66.31a3.85,3.85,0,0,1-3.63,0A3.46,3.46,0,0,1,856,66.31Zm-.49-15.4a3.66,3.66,0,0,1-3.15,0A3,3,0,0,1,855.55,50.91Zm0,3.16a4.6,4.6,0,0,1-3.52.1A3.22,3.22,0,0,1,855.54,54.07Zm0,52.2a4,4,0,0,1-3.55.16A3.62,3.62,0,0,1,855.54,106.27Zm0,3.07c-1,.72-2.08.71-3.55.1A3.6,3.6,0,0,1,855.53,109.34Zm.48,18.44a4.39,4.39,0,0,1-4,.24C853.41,127.11,854.46,127.32,856,127.78ZM855.59,148c0,1.12-.06,2.24,0,3.35.1,1.31-.11,2-1.74,2s-1.53-.85-1.52-1.93c0-2.38.08-4.77,0-7.15-.05-1.22.37-1.53,1.52-1.46s1.94-.13,1.77,1.43A37,37,0,0,0,855.59,148Zm-3.18-17a4.33,4.33,0,0,1,3.44-.23C854.59,131.89,853.51,131.56,852.41,131Zm3.14,3c.06,1-1,.49-1.58.67-.56-.2-1.59.38-1.58-.67,0-.82.93-.54,1.46-.53S855.49,133.1,855.55,134Zm.06,26.48c.07,1.28.11,2.21-1.77,2.19s-1.41-1.22-1.48-2.22c0-.45,0-.9,0-1.35a13.52,13.52,0,0,0,0-1.56c-.15-1.19.16-1.7,1.52-1.69s1.94.26,1.75,1.72A14.89,14.89,0,0,0,855.61,160.47Zm-3.19-20.28a3.9,3.9,0,0,1,3.42-.15A2.88,2.88,0,0,1,852.42,140.19Zm0-2.89c1-1.1,2.05-.79,3.8-.29A5.89,5.89,0,0,1,852.39,137.3Zm66.16-8.12a6.81,6.81,0,0,1-3-1.41c-.12-.08-.32-.19-.32-.29a30,30,0,0,0-.9-5.59c0-.11.13-.26.22-.38.68-.86.82,2.1,1.63.23.3-.69.37-1.85,1.49-.66.58-.91.71-.42.71.25C918.34,123.92,918.88,126.51,918.55,129.18ZM923.6,128v34.36c-2.45-5.83-2.29-19.49-.22-21.47-.21-.73-1.21.06-1.39-.74a23.19,23.19,0,0,0-.15-3.13c-.42-2.41.56-5.21-2-7.06-.21-.15-.18-.7-.18-1.07,0-3.08-.07-6.16-.06-9.24,0-.29.09-1.2.31-.89.7,1,1.1-1.26,2.2.21C924.36,121.88,923.45,124.92,923.6,128Zm-4.52-15.23c1.3-1.93.48-4.81,3-6.16.49.53-.43,1.19,0,1.81a2.74,2.74,0,0,0,1.33-1.54C925.09,110.93,922.72,112.28,919.08,112.74Z"/></g></g></svg>